<?xml version="1.0" standalone="no"?>
<!DOCTYPE svg PUBLIC "-//W3C//DTD SVG 1.1//EN" "http://www.w3.org/Graphics/SVG/1.1/DTD/svg11.dtd" >
<svg xmlns="http://www.w3.org/2000/svg" xmlns:xlink="http://www.w3.org/1999/xlink" version="1.1">
<metadata>
Created by FontForge 20170910 at Fri Nov 23 22:38:32 2012
 By Jimmy Wärting
CloudHome(c) Xerographer Fonts. 2012. All Rights Reserved
</metadata>
<defs>
<font id="CloudHome" horiz-adv-x="1592" >
  <font-face 
    font-family="CloudHome"
    font-weight="400"
    font-stretch="normal"
    units-per-em="2048"
    panose-1="2 0 5 0 0 0 0 0 0 0"
    ascent="1638"
    descent="-410"
    x-height="1467"
    cap-height="1541"
    bbox="-160 -362 2444 1666"
    underline-thickness="150"
    underline-position="-292"
    unicode-range="U+0020-20AC"
  />
<missing-glyph horiz-adv-x="901" 
d="M10 1346l713 125l232 -1313l-713 -126zM346 1233q30 25 56 40q31 17 69 17q58 0 91 -33t33 -90q0 -75 -81.5 -217t-81.5 -218q0 -51 35 -148h32q-24 95 -24 133q0 47 36 99t99 132q64 80 87 129.5t23 98.5q0 80 -56 127.5t-148 47.5q-59 0 -112 -30q-27 -15 -58 -43v-45z
M292 288q0 -9 7 -18l61 -71q9 -10 20 -10q7 0 21 14l56 62q10 11 10 22q0 9 -9 20l-56 60q-12 11 -22 11q-9 0 -20 -10l-57 -58q-11 -12 -11 -22z" />
    <glyph glyph-name=".notdef" horiz-adv-x="901" 
d="M10 1346l713 125l232 -1313l-713 -126zM346 1233q30 25 56 40q31 17 69 17q58 0 91 -33t33 -90q0 -75 -81.5 -217t-81.5 -218q0 -51 35 -148h32q-24 95 -24 133q0 47 36 99t99 132q64 80 87 129.5t23 98.5q0 80 -56 127.5t-148 47.5q-59 0 -112 -30q-27 -15 -58 -43v-45z
M292 288q0 -9 7 -18l61 -71q9 -10 20 -10q7 0 21 14l56 62q10 11 10 22q0 9 -9 20l-56 60q-12 11 -22 11q-9 0 -20 -10l-57 -58q-11 -12 -11 -22z" />
    <glyph glyph-name=".null" horiz-adv-x="0" 
 />
    <glyph glyph-name="nonmarkingreturn" horiz-adv-x="508" 
 />
    <glyph glyph-name="space" unicode=" " horiz-adv-x="740" 
 />
    <glyph glyph-name="space" unicode="&#xa0;" horiz-adv-x="740" 
 />
    <glyph glyph-name="dollar" unicode="$" horiz-adv-x="1682" 
d="M687 1482h54q176 -5 176 -15q-29 -61 -29 -101q3 -23 6 -28q95 11 98 11q12 0 63 -20h15q97 26 135 26q54 0 141 -43h26q12 0 23 3q95 0 210 -147q26 -11 84 -26q132 -96 132 -231v-31q-8 -79 -8 -95q0 -28 29 -142v-23q0 -133 -121 -218q-67 -25 -67 -84
q0 -204 -164 -262q-34 -6 -54 -6q-25 0 -87 3q-9 0 -63 -63q-57 -35 -98 -35h-32q-75 0 -201 78v-38q0 -6 2 -11q-2 -5 -2 -12v-31q0 -15 -9 -18q-41 0 -61 3l-161 -8l-6 8q0 11 18 87h-20q-22 0 -61 -55q-36 -29 -78 -29l-101 15l-63 -12q-93 19 -178 92q-13 49 -55 49
q-173 60 -231 170q-8 32 -8 46v6q0 18 14 60q-103 75 -103 139v37q0 112 80 205q-78 66 -78 95q-5 0 -14 43v23q0 38 78 176v2q-29 51 -29 72q0 58 130 147q74 44 146 44h26q17 0 46 -3q16 0 41 46q104 69 210 69q68 0 193 -69v95q1 6 6 6zM707 1424v-46q0 -20 23 -52v-6
q-26 -11 -26 -46q9 -50 9 -63v-3q0 -17 -101 -17q-109 -24 -164 -75q-61 -67 -61 -159q0 -124 127 -167q0 -13 322 -20q191 -43 191 -164v-20q-22 -65 -93 -112q-31 -31 -276 -52q-216 -5 -216 -15q-12 0 -17 -72q0 -35 95 -43q158 -29 196 -29q29 3 34 3q14 -5 14 -14
q0 -61 -11 -303l20 -2h130q29 0 29 31v87q0 60 -12 126q0 24 101 32q179 65 256 210q23 52 23 107q0 119 -129 245q-204 103 -360 103q-116 20 -116 75q0 44 104 66h3q110 0 389 -69q32 -5 52 -5q19 0 57 126q-26 54 -294 104q-58 14 -80 14h-26q-15 0 -35 167v21q0 11 3 23
q-3 11 -3 23v14q0 9 -46 9q-109 0 -109 -15z" />
    <glyph glyph-name="zero" unicode="0" horiz-adv-x="1900" 
d="M764 1513h26q98 0 219 -135h3q69 55 150 55h3q161 0 262 -153l17 -37q147 11 187 34q22 6 41 6q135 0 172 -213q6 -90 15 -90q18 -19 104 -40q97 -53 97 -164v-52q0 -113 -120 -222q-29 -16 -29 -43q11 -77 11 -147q0 -34 -98 -103q-18 -28 -219 -98q-49 -12 -109 -18
q-142 0 -213 26l-3 -5v-21q0 -129 -285 -172q-13 -3 -46 -3h-29q-151 0 -334 109q-2 0 -17 3q-91 -14 -127 -14q-136 0 -288 138q-92 122 -121 227q0 49 -29 49q-114 73 -161 170q-3 16 -3 26v20q0 40 52 144q4 1 78 87q26 23 34 23q-23 78 -23 98q0 108 144 193q7 0 32 17
l-43 63q-12 42 -12 64v28q0 103 248 144q20 3 52 3h23q101 0 155 -43q5 -3 12 -3h5q101 46 167 49zM511 563v-26q0 -176 144 -256q48 -15 89 -15h12q175 0 222 84q76 86 112 270q9 63 9 98v144q0 87 -55 222q-21 22 -58 40q-55 47 -103 47h-21q-87 0 -216 -116
q-106 -126 -106 -236q-29 -155 -29 -256zM842 1081h12q59 0 103 -132v-15q0 -300 -106 -452q-42 -46 -84 -46h-3q-68 0 -100 55q-9 48 -9 78q0 79 75 386q54 126 112 126z" />
    <glyph glyph-name="one" unicode="1" horiz-adv-x="1860" 
d="M422 1603h31q153 0 300 -133q25 -37 32 -37q97 46 207 74q85 58 153 58h92q185 0 236 -83q11 -38 23 -98q3 0 3 -3l34 3h38q23 0 144 11q172 0 242 -150q40 -44 40 -141v-101q0 -85 -37 -132v-9q60 -87 60 -204v-63q-59 -192 -181 -260q-64 -33 -136 -66l-28 -112
q-7 -30 -119 -147q-21 -20 -80 -32q-45 -35 -210 -55q-45 -5 -78 -5q-93 0 -190 66h-12q-77 -66 -144 -66h-43q-178 0 -363 224q-36 23 -60 23q-22 0 -61 -5q-136 0 -222 175q-63 102 -63 182v95q-81 29 -135 118q-34 79 -35 138q0 80 58 156q-78 72 -78 126v18q0 83 89 147
q102 63 190 63h18q5 0 31 66q51 99 213 153q22 6 41 6zM620 825q0 -25 49 -40h9q31 31 245 293l6 3q17 0 17 -11q-81 -334 -115 -666q0 -80 -29 -80q-4 -3 -20 -3h-150q-52 0 -52 -49l-3 -6q35 -2 35 -6q5 3 8 3q42 0 113 3q264 -20 651 -43q14 19 14 32q-70 31 -207 46
q-205 8 -205 23l-3 14v6q0 12 84 429l43 277q9 92 23 169q-4 15 -20 15h-86q-40 0 -104 3q-32 0 -173 -210q-130 -183 -130 -202z" />
    <glyph glyph-name="two" unicode="2" horiz-adv-x="1569" 
d="M321 1482h37q185 0 291 -121q87 -101 90 -101h8q97 43 161 43h6q55 0 92 -52q65 17 110 17h11q170 0 334 -118q93 -77 93 -178q0 -35 -6 -133q0 -15 52 -49q91 -101 126 -293q3 -30 3 -46v-64q0 -112 -126 -184q-91 -46 -188 -46q-48 0 -126 20l-3 -6v-20
q0 -142 -303 -216q-39 -3 -49 -3q-90 0 -227 81h-9q-5 0 -54 -55q-60 -40 -139 -40h-40q-299 0 -392 247q0 15 -80 35q-74 39 -113 158q-11 48 -11 84q0 54 31 127q-60 91 -60 129v15q0 81 127 175q46 17 46 29q-64 95 -64 161v9q0 147 133 300q92 95 239 95zM459 825
q0 -14 75 -26q7 0 43 63q50 43 118 69l52 15q113 0 196 -121q12 -46 12 -63q0 -150 -225 -257q-104 -31 -305 -63q-17 0 -32 -49q0 -14 -3 -29q0 -15 254 -43q198 -49 354 -49q0 -6 66 -6q6 10 6 17v9q0 17 -124 40q-173 52 -251 52q-24 0 -83 -11q-20 0 -20 29q10 9 26 17
l20 -3h8q111 0 280 92q147 91 147 248v3q0 193 -199 291q-50 23 -101 23l-26 17q-107 0 -219 -110q-69 -120 -69 -155z" />
    <glyph glyph-name="three" unicode="3" horiz-adv-x="1725" 
d="M416 1577h29q130 0 242 -83q11 -9 34 -15q76 24 121 24q15 0 84 -12h3q186 35 216 35q143 0 201 -136q22 -8 141 -26q162 -47 208 -129q63 -92 63 -202q0 -26 -14 -138q0 -18 63 -72q78 -104 78 -219v-17q0 -157 -196 -231v-14q26 -93 26 -138q0 -171 -193 -239
q-52 -21 -104 -21q-8 0 -158 15q-8 0 -43 -58q-81 -78 -237 -78h-2q-59 0 -225 93h-12q-89 -83 -112 -84q-33 -14 -63 -14h-41q-83 0 -239 141q-29 29 -132 49q-76 29 -170 127q-92 137 -92 259v49q0 45 43 100v9q-11 21 -69 89q-26 41 -26 78v26q0 81 89 170q52 32 52 55
q-6 47 -9 54q0 91 116 193q26 21 72 35q-38 73 -38 115v20q0 120 185 179q67 11 109 11zM387 1082q0 -19 153 -29q70 -8 285 -26q248 -37 291 -37q20 3 34 3q12 -5 12 -9v-6q0 -26 -84 -46q-263 -86 -498 -138q-155 -22 -155 -55l-15 -46q0 -23 519 -78q282 -9 282 -20l3 -5
v-9q-40 -146 -130 -213q-79 -69 -248 -104q-62 -14 -126 -14q-115 0 -265 49v-3q-9 -20 -9 -32v-17q0 -74 161 -101q48 -9 150 -9h55q229 0 418 156q104 107 161 297q0 19 -202 37q-228 29 -389 81l-141 17l-5 3q9 29 25 29q39 -6 49 -6q131 0 283 46q216 30 216 49
q9 0 20 199q-21 66 -58 66l-14 -3q-75 14 -280 20q-152 23 -285 23h-106q-95 0 -95 -11q-6 0 -12 -58z" />
    <glyph glyph-name="four" unicode="4" horiz-adv-x="1696" 
d="M364 1627h26q151 0 242 -147q4 0 29 3q39 -2 92 -40h3q40 3 69 3h29q108 0 190 -64q70 29 147 29h3q144 0 193 -83q15 -23 43 -23h37q172 0 248 -153q29 -62 29 -118v-26q0 -19 -18 -89q130 -65 130 -225v-40q0 -118 -156 -265l35 -55q9 -54 9 -83q-18 -162 -41 -162
q-45 -55 -123 -112q-16 0 -136 -58q-57 -13 -83 -49q-46 -92 -173 -144q-82 -8 -124 -8q-105 0 -236 69l-20 3q-64 -23 -147 -23h-9q-208 0 -368 172q-89 11 -116 35q-213 199 -213 374v35q0 17 3 46q0 18 -63 110q-26 61 -26 132v55q0 63 55 132q-81 105 -81 124
q-3 16 -3 26v26q0 105 78 184q-49 81 -49 113q0 62 127 118q48 17 146 37q11 7 46 63q82 78 176 78zM327 654q464 -58 653 -72q12 -16 12 -20q-26 -36 -132 -398q-6 -16 -12 -81q6 -17 23 -17h26q43 52 193 481q60 156 112 461q0 16 -49 32h-5q-11 0 -75 -150
q-35 -76 -69 -193q0 -23 -288 -23q-197 -6 -237 -20q-26 5 -26 26q0 5 70 89q158 261 167 322q-167 -148 -199 -207q-117 -146 -164 -230z" />
    <glyph glyph-name="five" unicode="5" 
d="M335 1515q133 0 173 -74q8 -15 23 -15h6l112 20q79 -11 81 -11q16 0 150 32q43 2 80 2h15q81 0 141 -51q120 -12 152 -35q78 -66 78 -147q0 -11 -6 -63q3 -18 3 -41v-23q167 -29 167 -46q84 -70 84 -190v-29q0 -49 -14 -86q172 -103 172 -256v-26q0 -100 -89 -213
q-11 -16 -11 -35q20 -68 20 -98q0 -92 -95 -230q-86 -89 -159 -89q-118 0 -118 -26q-28 -78 -104 -124q-70 -23 -138 -23h-31q-77 0 -225 54q-22 9 -61 9q-82 -9 -89 -9h-26q-178 0 -345 191q-21 26 -55 83q-118 28 -167 92q-126 178 -135 303q8 76 8 92q0 5 -46 60
q-40 62 -40 141q0 69 46 153q-52 69 -52 135v32q0 93 69 147v3q-11 35 -14 60q0 99 161 139h20l20 -3l3 5v21q0 126 185 169h51zM664 971h-245q-22 0 -29 -57q-20 -127 -29 -381q0 -35 133 -43q195 -29 553 -63l3 -6v-32q0 -12 -46 -172q-7 -49 -24 -49q-181 3 -241 5
q-34 -2 -49 -2q-273 8 -317 8h-3q-23 0 -23 -23v-26q0 -31 95 -31l311 -24q136 -20 176 -20h3q40 0 72 6q18 -3 40 -3h3q56 0 124 150q50 82 74 207q0 17 -158 61q-281 89 -426 89l-170 -9q-15 6 -15 18q21 84 21 152q0 18 -3 52q0 32 83 32q122 26 392 26q161 8 161 29
q9 14 12 40q-5 63 -23 63l-35 -3h-11q-93 0 -242 9q-96 -3 -167 -3z" />
    <glyph glyph-name="six" unicode="6" horiz-adv-x="1731" 
d="M1346 1493h26q153 -19 153 -153q0 -2 -3 -17q4 -11 9 -11h49q149 0 187 -52q95 -77 95 -173q0 -57 -61 -213q48 -30 75 -124q15 -44 15 -81v-43q0 -74 -101 -199q-41 -32 -41 -43q47 -68 47 -135v-9q0 -98 -159 -152l-34 -6l-67 9q-13 0 -98 -81q-90 -40 -118 -40h-5
q-87 0 -225 37q-12 0 -199 -72q-60 -17 -103 -17h-32q-71 0 -176 60l-17 3q-53 -14 -84 -14q-103 0 -230 129q-31 34 -55 115q0 49 -75 98q-147 147 -147 311q3 28 3 55q-135 84 -135 184v32q0 119 104 190q-3 39 -3 55q0 97 80 141q73 58 156 58h3q37 0 121 -15l29 55
q100 101 224 101h15q91 0 184 -58q29 -34 49 -34h9q21 6 106 60q87 38 133 38q37 0 80 -35h9q161 46 207 46zM589 615q0 -142 112 -320q86 -104 216 -104q252 11 271 38q141 72 141 190q0 113 -135 204q-77 32 -214 32q-109 0 -141 -35q-16 -25 -34 -25t-26 92v11
q0 155 187 329q-138 77 -155 77q-82 -28 -159 -204q-63 -196 -63 -285zM1018 557h26q76 0 135 -58q17 -42 17 -60q0 -90 -155 -132l-35 -3q-116 20 -132 54q-10 0 -20 58q0 116 164 141z" />
    <glyph glyph-name="seven" unicode="7" horiz-adv-x="1817" 
d="M390 1482h32q152 0 302 -144h3l23 20q49 -6 61 -6q46 0 112 58q27 14 52 14h8q52 0 104 -63q111 49 181 49h15q180 0 253 -165q21 -20 41 -20h5q20 0 35 3q142 0 213 -147q23 -58 23 -124q0 -85 -66 -198q89 -49 144 -107q23 -26 46 -153v-40q0 -117 -193 -236
q-12 -23 -14 -37q2 -20 2 -32q0 -114 -158 -184q-48 -15 -83 -15q-74 0 -280 49q-7 0 -89 -57q-71 -29 -141 -29h-6q-105 0 -383 86h-6q-44 -23 -98 -23q-41 0 -109 23q-34 0 -84 49q-41 12 -115 86q-49 57 -78 107q-120 45 -158 118q-55 105 -55 184v18l12 141
q-74 67 -75 89q-26 50 -26 92v32q0 77 52 170q3 5 3 14q-15 44 -15 55q0 89 144 207q44 32 95 32q24 0 101 -26h6q5 0 43 58q55 52 121 52zM453 937h3q542 -3 542 -8q104 5 124 14q11 -4 17 -14v-3q0 -11 -92 -127q-109 -180 -127 -202q-204 -279 -259 -362l-3 -18
q12 0 83 -17q24 0 127 130q33 35 78 100q67 73 153 216l167 254q5 26 5 37v12q0 118 -14 118h-112q-488 -23 -674 -46q-9 0 -18 -84z" />
    <glyph glyph-name="eight" unicode="8" horiz-adv-x="1509" 
d="M629 1487h32q103 0 187 -124q25 -48 35 -48q117 46 158 46q8 0 58 -9q117 29 152 29q121 0 179 -110q3 -24 3 -37q-9 -47 -9 -72q146 0 228 -164q17 -51 17 -90v-8q0 -101 -104 -225l-20 -11v-18q0 -6 32 -54q8 -26 8 -44v-14q0 -110 -155 -253q-80 -72 -179 -72
q-42 2 -75 2q12 -36 12 -54v-9q0 -108 -282 -210q-38 -20 -75 -20h-46q-77 0 -257 86h-11q-16 0 -55 -3q-132 36 -271 150q-89 85 -95 138q-5 6 -66 29q-101 99 -101 199v31q0 51 58 173q-102 54 -138 164q-9 31 -9 46v29q0 105 130 187q5 21 8 21q-2 14 -6 66q0 62 142 124
q75 29 152 29q45 0 110 -26h5q34 62 95 86q92 37 153 40zM344 851v-12q0 -113 179 -178q8 -11 8 -20l-69 -23q-98 -40 -98 -101v-15q0 -133 205 -195q48 -21 118 -21h8q165 0 268 101q17 37 17 66q0 82 -120 153v3q13 18 80 60q104 104 104 199q0 62 -101 187q-43 41 -89 46
h-3q0 -6 -20 -8q-60 26 -113 26h-2q-186 0 -337 -170q-35 -49 -35 -98zM759 1035q52 0 115 -101q20 -48 20 -86q0 -48 -72 -107q-53 -37 -106 -37h-15q-80 0 -184 63q-26 24 -26 67q0 126 147 175q102 26 121 26zM664 586h3q70 0 103 -61q0 -20 3 -23q0 -43 -66 -89
q-25 -14 -52 -14q-91 0 -115 69q0 3 -3 8q31 90 60 90q22 20 67 20z" />
    <glyph glyph-name="nine" unicode="9" 
d="M943 1415h35q83 0 123 -95q100 26 179 26h17q192 0 294 -106q43 -63 43 -136q0 -54 -31 -103q-3 -4 -3 -15q104 -58 138 -164q14 -32 14 -75v-34q0 -102 -109 -225q-92 -79 -176 -92q-11 0 -11 -3q98 -119 98 -222q0 -157 -199 -219q-110 -34 -199 -34h-75
q-162 0 -302 115q-10 0 -15 3q-7 0 -112 -49q-91 -38 -147 -38h-31q-144 0 -268 225q0 31 -43 35q-135 0 -176 80q-89 118 -89 228q0 84 63 144q-121 78 -121 170v23q0 116 130 196q-44 66 -44 112q0 82 90 155q37 29 147 55q126 23 195 23q139 0 288 -63q9 0 9 -3l107 29
q91 57 181 57zM428 787q0 -92 141 -172q90 -38 184 -38q62 0 147 29q11 -25 11 -37v-29q0 -19 3 -38q0 -94 -98 -175q-60 -29 -118 -29h-26q-42 0 -167 17l-3 -14v-15q0 -21 222 -75q15 -5 66 -5q167 0 228 89q95 114 95 294v20q-17 248 -46 325q-28 90 -89 127
q0 17 -257 17q-102 0 -216 -109q-77 -106 -77 -182zM802 969h6q37 0 43 -112q23 -117 23 -153q-6 -17 -23 -17q-212 0 -251 80q-3 0 -20 41q0 91 187 155q20 6 35 6z" />
    <glyph glyph-name="A" unicode="A" horiz-adv-x="1811" 
d="M1436 1315h51q163 0 274 -179q20 -46 72 -202l55 -34q58 -42 83 -147v-6q0 -137 -101 -325q-35 -49 -72 -69q-31 -12 -31 -18q3 -52 3 -69q0 -161 -208 -239q-36 -8 -69 -8h-9q-88 0 -187 74q-36 -58 -115 -112q-96 -63 -173 -63h-43q-77 0 -233 118q-91 -66 -138 -66
q-2 0 -38 -3q-57 0 -193 103q-32 52 -57 52q-41 -8 -84 -8q-118 0 -230 77q-84 102 -84 257q0 92 52 155v3q-121 127 -121 199v29q0 98 63 210q155 164 346 164h6q145 0 268 -81q21 -18 95 -98l8 -5h6q20 68 60 92q111 75 173 75q19 0 69 54q110 67 176 67h23q51 0 121 -46
q95 49 182 49zM321 327v-15q0 -29 46 -29q19 -2 37 -2q35 0 35 20v17q9 217 29 233q0 4 60 15q406 0 573 -52h38q37 0 43 -84q13 -29 26 -121q30 -49 109 -49h15q104 0 104 18q-38 175 -81 273q-31 78 -153 211q-205 149 -325 149q-33 0 -84 -3q-31 6 -72 6h-26
q-123 0 -244 -103q-130 -158 -130 -484zM825 857h6q144 0 279 -231l3 -20q0 -20 -23 -20q-31 14 -225 29q-80 0 -262 3q-38 -3 -63 -3q-20 9 -20 23q36 105 89 164q0 17 170 49q12 6 46 6z" />
    <glyph glyph-name="B" unicode="B" horiz-adv-x="1805" 
d="M632 1591h204q83 -50 150 -156q63 52 153 52h3q210 0 311 -178q24 -57 31 -98q6 0 41 20l17 3q42 0 254 -110q65 -55 89 -106q52 -119 52 -216v-9q0 -131 -61 -193q89 -150 89 -247v-35q0 -90 -69 -181q-37 -35 -95 -35q-14 0 -178 20q11 -55 11 -66v-17q0 -69 -132 -116
q-23 -5 -49 -5h-15q-86 0 -256 86q-94 -72 -190 -72q-144 0 -334 153q-2 6 -23 17q-74 -58 -147 -58q-182 0 -323 234q-25 51 -51 138q-17 16 -104 32q-170 62 -170 144v28q0 64 104 268q-35 26 -35 72q0 83 84 170q40 29 60 29q9 0 78 -9q3 0 52 46q29 16 57 18
q15 -3 29 -3q54 161 95 161q0 6 29 6q24 -3 83 -3q0 76 61 153q42 36 95 63zM494 1136h-3q-104 -497 -104 -588q-6 -100 -8 -270q0 -50 233 -72q119 -26 199 -26q58 0 391 46q98 0 251 86q34 33 34 61v29q0 137 -210 216q-73 14 -144 17q-11 6 -11 8v6q0 29 51 29
q235 17 268 49q78 43 78 104v14q-23 96 -202 196q-34 20 -169 34q-41 36 -594 64q-19 -3 -60 -3zM554 1116q158 -44 392 -61q230 -61 274 -115q86 -70 86 -86v-26q0 -55 -112 -55h-23q-457 32 -599 32h-15q-81 5 -81 23q0 14 67 224l3 15q0 5 -6 23q8 26 14 26zM508 678
q26 -20 208 -40q129 -18 377 -72q58 -14 167 -118q6 -19 6 -26v-3q0 -61 -87 -107q-66 -43 -348 -43q0 -3 -67 -3q-235 23 -288 32l-8 11q32 57 32 211v37q0 27 -3 115z" />
    <glyph glyph-name="C" unicode="C" horiz-adv-x="2085" 
d="M1366 1603h32q63 0 95 -78q8 0 78 3q149 0 285 -107q101 -100 101 -202q4 0 6 -25h5q93 0 211 -95q66 -73 66 -133v-29q0 -67 -113 -158q-8 -11 -8 -20v-12q8 -39 8 -55v-31q0 -240 -184 -323q-38 -20 -161 -29q-5 3 -12 3l-17 -75q-49 -93 -164 -167q-72 -31 -138 -31
q-32 0 -208 28v-2q-35 -91 -106 -124q-54 -23 -92 -23h-67q-118 0 -397 109l-17 3h-6q-62 -17 -69 -17q-95 0 -265 161q-104 120 -127 193q-3 7 -69 14q-122 72 -187 277q-6 27 -6 43v20q0 102 179 159q6 0 37 8v3q-63 60 -63 87v11q0 58 123 138q192 88 193 92v29
q0 57 78 107q109 75 219 75h32q76 0 178 -41h9q11 0 49 35l43 9q47 -3 92 -3q29 0 110 77q130 96 247 96zM471 695v-37q0 -186 224 -354q79 -58 285 -58q28 0 104 -3q271 17 271 29q11 0 20 60v6q0 7 -14 9q-173 6 -219 8l-15 -2q-186 0 -414 89q-89 53 -136 178
q-3 15 -3 35v49q0 174 147 239q134 55 303 55q47 0 354 -46q56 0 75 121v2q0 30 -205 90q-51 8 -132 11q-373 0 -562 -210q-83 -138 -83 -271z" />
    <glyph glyph-name="D" unicode="D" horiz-adv-x="1555" 
d="M724 1522h38q93 0 187 -58l14 -3q78 38 133 38q121 0 285 -104q124 -113 147 -219q11 -34 20 -149q0 -17 89 -110q78 -119 78 -245q0 -194 -245 -354q-20 -13 -20 -37v-23q0 -139 -144 -268q-101 -72 -222 -72h-3q-130 0 -319 118q-41 20 -67 20q0 -36 -72 -63
q-60 -12 -95 -12q-129 0 -299 124q-41 40 -46 40q-21 -11 -46 -11q-109 0 -242 204q-32 65 -32 110q0 4 3 46q0 4 -26 80v23q0 54 69 133q31 23 49 23v3q0 7 -29 52q-11 33 -11 60q0 115 193 147h17q45 0 115 -32v64q0 77 46 115q-5 56 -5 83q0 76 86 118q21 9 49 12
q32 -3 57 -3q26 77 81 110q90 40 167 40zM574 1162l-37 -207q-49 -250 -95 -715v-14q0 -6 78 -9q10 0 135 3q1 0 12 3l17 -3q205 0 345 35q156 42 228 132q72 76 72 210q0 171 -176 300q-212 121 -558 265h-21zM655 1064h9q4 0 11 -12v-11q0 -3 -3 -3q0 -24 61 -55
q19 -16 236 -118q105 -77 173 -173q17 -29 37 -92v-29q0 -90 -121 -158q-151 -98 -351 -98q-45 -6 -164 -32h-3q-23 3 -23 21q60 254 112 567q9 22 17 84q-5 85 -8 89q5 13 17 20z" />
    <glyph glyph-name="E" unicode="E" horiz-adv-x="2165" 
d="M615 1450h20q25 0 101 -38q60 0 98 -37l17 -3h86q127 0 159 -63q0 -6 3 -6q127 72 230 72q97 0 167 -69q16 -12 23 -12q76 38 118 38h32q305 0 383 -213q11 -33 11 -69q-5 -42 -28 -139q163 0 218 -92q72 -101 72 -207v-20q0 -115 -74 -237q-89 -101 -162 -123v-29
q0 -105 -132 -190q-82 -41 -156 -41q-100 0 -233 52h-12q-19 0 -103 -60q-79 -46 -121 -46h-40q-69 0 -288 152q-10 11 -32 23h-9q-51 -51 -170 -51q-95 -44 -124 -44h-28q-58 0 -248 90q-28 21 -109 109q-52 4 -133 72q-164 141 -164 228q0 6 -69 49q-78 68 -78 161v32
q0 142 118 213q61 41 61 95q21 66 109 126q72 48 173 58q3 0 6 9q-6 10 -6 23v8q0 75 207 162q66 17 107 17zM652 920q0 -139 170 -187q279 -90 374 -90q15 -17 15 -20q-6 -20 -20 -20q-192 43 -251 43h-17q-70 0 -245 -57q-81 -63 -104 -144v-20q0 -105 237 -167
q61 -26 190 -26q91 -21 155 -21h35q148 -25 164 -25q17 2 17 23v17q-287 17 -466 57q-114 32 -156 64q-48 57 -52 106q0 68 92 101q175 20 320 20q30 0 147 -8h3q6 0 8 20q0 81 -23 81l-403 123q-72 52 -72 133q0 69 124 92q64 14 107 14q71 0 417 -72h3q12 5 12 21v8
q0 38 -153 107q-60 29 -239 43q-21 3 -52 3h-6q-136 0 -155 -26q-42 -6 -159 -133q-17 -35 -17 -60z" />
    <glyph glyph-name="F" unicode="F" horiz-adv-x="1748" 
d="M1078 1268h15q32 0 106 -57q84 40 153 40q142 0 274 -152q46 -78 46 -136q111 -25 152 -52q84 -67 84 -135v-58q0 -92 -95 -195q-50 -44 -124 -44h-43v-5q20 -58 20 -84q0 -89 -110 -164q-132 -89 -230 -89q-36 -3 -40 -3q-14 0 -107 17q3 -15 3 -17q0 -68 -81 -139
q-89 -40 -155 -40q-25 0 -193 43q-11 0 -63 -43q-54 -37 -107 -37h-3q-69 0 -276 80q-85 39 -199 144q-53 60 -107 75q-81 49 -126 190q-20 75 -20 127v3q0 30 43 63q-55 81 -55 118v26q0 84 130 205q83 69 224 69q10 0 61 -3q22 63 89 104q158 68 222 72q34 14 54 14h12
q50 0 173 -66l14 -3q34 0 72 58q90 74 187 74zM525 975q15 -251 15 -360v-69q0 -89 -6 -193l6 -214q19 -42 37 -54q15 0 43 201q0 93 44 93q206 25 337 25q30 0 109 -2q69 6 69 20q0 32 -112 46q-21 6 -107 11q-81 -11 -144 -11h-37q-27 0 -75 3q-22 -4 -43 -20h-9
q-20 0 -20 25q14 29 14 58q0 22 -5 164l-3 6q0 26 29 26q36 0 527 -38h57q112 0 130 49v9q0 43 -113 84q-94 60 -319 97q-127 36 -392 49q-30 -5 -32 -5z" />
    <glyph glyph-name="G" unicode="G" horiz-adv-x="1780" 
d="M707 1516h23q142 0 213 -129q19 -61 29 -61q28 0 112 -29h12q93 18 141 18q135 0 175 -67v-3q71 29 107 29h23q156 0 256 -184q23 -75 23 -124l-11 -141q0 -6 63 -75q67 -103 67 -167v-17q0 -135 -119 -262q-100 -72 -149 -72q-20 -6 -20 -38q0 -100 -84 -155
q-152 -72 -219 -72q-183 0 -256 37h-6q-6 0 -86 -49q-122 -37 -239 -37q-216 0 -366 135q-42 -32 -81 -32h-20q-129 0 -308 208q-27 45 -49 126q-89 55 -89 191q0 107 89 218q-98 102 -98 167v55q0 94 130 147v3q-95 98 -95 150q0 82 311 187q36 9 63 9h23q58 0 112 -61h3
q92 70 236 89q57 6 84 6zM263 580q0 -99 72 -250q79 -144 245 -211q140 -31 242 -31h89q88 0 136 60q18 60 37 66q54 55 159 260q28 38 28 49q-49 46 -227 86q-318 101 -360 101q-15 -34 -23 -64q27 -22 196 -66q134 -57 273 -86l9 -12v-8q0 -8 -32 -49q-96 -188 -115 -254
l-17 -8q-28 5 -43 5q-95 -5 -119 -5q-133 0 -273 95q-138 119 -138 290q0 182 83 248q179 187 435 187q100 0 242 -40q12 0 34 -6q49 100 49 118v20q-163 61 -262 61h-31q-239 0 -476 -161q-140 -105 -198 -294q-15 -55 -15 -101z" />
    <glyph glyph-name="H" unicode="H" horiz-adv-x="1794" 
d="M770 1591h12q59 0 132 -55q32 -30 58 -98l135 14q94 0 133 -100q5 -35 5 -55v-3h3q16 0 26 3q222 0 308 -72q67 -53 67 -121q0 -10 -3 -26q3 -6 3 -9h3q164 -13 181 -43q52 -29 92 -164q9 -56 9 -78q0 -64 -55 -219q75 -106 75 -193v-89q0 -45 -86 -158
q-52 -70 -127 -110q-31 -20 -64 -20q-16 0 -77 20q-4 0 -18 -69q-30 -67 -126 -101q-75 -26 -139 -26q-152 0 -244 101q-53 -64 -101 -78q-100 -54 -187 -54h-21q-105 0 -230 173q-22 25 -127 25q-96 20 -175 84q-10 6 -75 86q-118 0 -202 110q-101 117 -101 216
q0 44 44 144q-58 78 -58 144v31q0 84 81 202q27 27 63 55q-60 72 -60 118v17q0 145 227 225q76 37 135 37q29 0 78 -6q27 67 69 87q85 43 147 43h55q38 0 135 12zM255 303q7 -57 37 -57q59 0 69 86q29 77 98 317q10 9 23 14q102 0 461 -95q76 -11 291 -60q37 -6 69 -6h17
q23 0 29 -14v-12q-98 -298 -98 -325q-14 -73 -14 -104v-12l60 -17q37 41 75 141q125 389 167 628q38 148 38 164v20q0 23 -46 23q-49 0 -64 -97l-89 -300q-6 -5 -29 -9q-134 0 -731 139q-58 14 -133 17l-6 9v2q18 158 55 409q6 38 6 69q0 26 -118 26q-25 0 -32 -60
q-20 -163 -92 -553q-43 -303 -43 -343z" />
    <glyph glyph-name="I" unicode="I" horiz-adv-x="2076" 
d="M577 1541h101q34 0 176 -101q27 -23 75 -89h3q6 0 43 3l92 -3q9 0 101 8h5q112 0 176 -100q15 -37 15 -67v-14h2q109 49 165 49h14q151 0 259 -150q23 -48 23 -83v-12q1 -6 6 -6q11 0 98 6q102 -7 216 -92q89 -97 89 -190v-3q0 -97 -80 -219q31 -76 31 -130
q0 -72 -72 -204q-68 -115 -213 -161q-38 -12 -158 -32q-70 -80 -190 -153q-112 -57 -251 -80h-49q-33 0 -178 54q-125 81 -133 81h-9q-98 -37 -144 -37q-124 0 -282 138q-24 14 -57 14l-26 -3q-108 10 -219 78q-176 113 -176 280q0 49 -43 69q-78 65 -112 216v37
q0 119 89 213q34 17 34 26q-158 73 -158 176v17q0 91 141 248q118 97 205 103h2q65 -5 70 -5h2l211 98q56 20 106 20zM422 1008v-37q0 -44 46 -44q51 -8 95 -8h210q17 0 29 -18v-8q-12 -36 -12 -41q0 -145 -23 -515q9 -56 9 -66q0 -23 -26 -23l-230 26q-182 -10 -182 -32
l-3 -40q2 -23 23 -23h6q229 -18 510 -24q136 12 184 12h23q154 0 553 -52h6q14 18 14 38q-11 4 -115 11q-69 12 -256 35q-253 69 -363 69q-13 0 -23 210l23 374q-6 26 -6 38v6q7 12 20 17q53 -3 67 -3q86 6 123 6h15l302 -26v3q18 31 18 57v6q0 35 -61 40l-14 -2
q-400 28 -455 28h-23q-452 -3 -484 -14z" />
    <glyph glyph-name="J" unicode="J" horiz-adv-x="1880" 
d="M652 1473q195 0 228 -38q6 0 66 -48q7 0 58 -29h8q75 26 110 26q1 3 26 3q140 0 198 -87q15 -11 29 -11q83 23 112 23q84 0 173 -101q21 -30 52 -104q8 -8 92 -17q61 -9 159 -101q77 -98 77 -199q0 -117 -132 -201l14 -78v-6q0 -91 -150 -201q-77 -46 -126 -46h-20
q-53 0 -144 46q0 -120 -188 -205q-136 -46 -195 -46h-35q-73 0 -233 40h-9q-44 -79 -63 -103q-77 -72 -124 -72h-40q-86 0 -251 144q-18 21 -35 46l-103 -12q-94 0 -219 150q-55 58 -55 213l-57 89q-35 72 -35 133v20q0 68 63 135q7 0 23 15q-72 99 -72 155q0 98 288 257
q70 28 142 28h11l14 -2q18 52 93 95q197 89 250 89zM672 1029q-96 0 -337 15q-36 -6 -46 -6v-72q438 -43 501 -43q7 0 32 3q17 0 20 -23v-121q0 -118 -89 -242q-94 -75 -187 -75q-139 0 -196 115q0 5 -35 6h-5q-21 0 -21 -20v-9q0 -95 130 -155q102 -26 158 -26h41
q194 0 325 187q32 59 55 184q9 46 9 75v23q0 23 -3 55q4 23 23 23h141q33 0 152 -6q18 18 18 40v6q0 98 -72 98h-12q-288 -32 -383 -32h-219z" />
    <glyph glyph-name="K" unicode="K" horiz-adv-x="1771" 
d="M586 1565h29q68 0 170 -69q27 -17 95 -26q18 -10 49 -46q96 32 135 32q142 0 158 -52q17 -20 21 -20q96 14 135 14h17q153 0 236 -86q21 -22 46 -90q15 -7 84 -23q55 -18 124 -106q46 -57 46 -113q0 -109 -107 -195q-9 -9 -14 -9q0 -7 49 -86q17 -44 17 -75v-20
q0 -122 -176 -268q-22 -16 -89 -46l-3 -15v-20q0 -93 -129 -158q-107 -72 -199 -72q-33 0 -112 20h-9q-15 0 -66 -55q-91 -63 -259 -63h-9q-149 0 -245 69q-50 25 -115 95q-20 6 -32 6q-63 -9 -86 -9q-117 0 -274 193q-60 98 -72 193q0 17 -77 92q-84 114 -84 202v26
q0 105 92 190q0 139 147 230q16 12 104 26q-12 44 -12 60q0 93 193 216q132 58 222 58zM540 1113v-20q-43 -238 -43 -527l-21 -317q0 -18 75 -38q15 173 49 343q3 28 3 61q0 15 12 20h5q29 0 78 -104q44 -66 107 -138q44 -73 92 -187q15 -12 26 -12q40 4 40 12
q0 38 -152 291q-30 55 -121 181q10 21 17 23h6l69 -17q292 0 366 196q40 100 40 138v23q0 7 -43 11q-24 0 -41 -69q-73 -158 -207 -210q-97 -40 -262 -40q-19 8 -23 17q29 57 29 216q3 12 11 141q0 23 -46 23q0 5 -49 9q-17 -7 -17 -26z" />
    <glyph glyph-name="L" unicode="L" horiz-adv-x="1615" 
d="M669 1502h38q118 0 225 -115q20 -14 40 -18q76 3 104 3q19 0 66 -17q134 23 164 23h29q100 0 161 -101q9 -55 55 -55q111 0 193 -132q31 -63 31 -147v-3q0 -124 -106 -259q-7 -23 -9 -23q38 -124 38 -176q0 -140 -147 -236q-116 -92 -219 -92q-13 0 -38 3q-5 -3 -11 -3
q0 -10 3 -61q0 -60 -52 -121q-81 -54 -225 -54h-63q-21 0 -193 20h-17q-110 -6 -116 -6q-190 0 -360 184q-8 32 -46 32q-122 0 -236 127q-54 83 -54 161v3q0 69 43 147v3q-89 61 -124 178q-3 16 -3 26v23q0 67 66 141q138 72 147 72v3q-106 96 -106 139v25q0 84 184 167
q99 29 184 29q35 0 115 -23q34 49 58 69q28 26 150 61q19 3 31 3zM534 1101q14 -136 124 -728q55 -222 60 -222h12q95 37 429 118q159 56 161 69q6 10 6 17v6q0 35 -29 38q-192 0 -412 -64q-58 -31 -66 -31h-3q-19 0 -69 265q-57 215 -57 325q-52 228 -70 228z" />
    <glyph glyph-name="M" unicode="M" horiz-adv-x="2237" 
d="M885 1656h35q157 0 282 -181l6 -3h9q81 11 112 11q160 0 222 -98l17 -3q80 18 95 18h17q109 0 188 -121l20 -72q72 8 86 8q138 0 282 -152q67 -91 67 -202v-40q0 -56 -21 -127q0 -7 72 -98q23 -53 23 -81v-25q0 -105 -126 -228q-62 -50 -136 -83q-91 -49 -198 -49
q-14 0 -98 2q-17 -51 -72 -86q-180 -86 -329 -86q-70 0 -175 28q-42 -84 -121 -158q-136 -112 -268 -112q-66 0 -176 54q-121 60 -181 61q-190 56 -274 167q-92 101 -92 176q0 25 20 83q-164 148 -164 248v8l9 208q0 32 -78 78q-98 88 -98 146v12q0 182 179 276q0 3 2 3
q-63 82 -63 127v6q0 116 268 227q66 18 118 18q89 0 187 -49q11 -12 35 -12q7 0 147 72q107 29 172 29zM376 999q-9 -156 -9 -210l3 -92q-12 -153 -12 -268v-176q1 -28 6 -28q69 4 69 11v9q-5 103 -5 115q2 319 247 423l29 3h26q84 0 121 -98q11 -43 11 -89q0 -111 -20 -196
q26 -6 38 -6h20q40 0 40 18q23 210 61 265q34 76 147 121q25 8 43 8h20q41 0 92 -92q12 -25 12 -55q0 -198 -44 -377h3q9 0 133 6q41 0 54 250v18q0 301 -164 374q-50 29 -106 29q-144 0 -254 -138q-8 -61 -31 -61h-12q-9 1 -34 78q-42 63 -136 63q-104 0 -201 -92
q-15 -15 -47 -63l-5 -3h-9q-26 0 -26 29q40 67 40 95q9 113 29 167q-13 6 -37 6h-20q-30 0 -72 -44z" />
    <glyph glyph-name="N" unicode="N" horiz-adv-x="1837" 
d="M675 1547h32q101 0 141 -90l81 9l63 -9h3q93 15 138 18q152 0 259 -104q21 -22 49 -87q29 -8 107 -20q222 -81 222 -268q0 -63 -44 -169h3q63 -24 170 -130q98 -105 98 -170v-20q0 -116 -253 -245q-44 -21 -44 -32q41 -149 41 -155q0 -97 -337 -164q-88 -15 -156 -15
q-34 -94 -115 -132q-100 -46 -176 -46h-5q-113 0 -334 98l-52 8q-29 -3 -43 -3q-180 0 -375 202q-135 160 -135 276q-173 183 -173 323v23q0 90 63 150q15 15 15 26q-32 78 -32 126q0 137 187 254q59 29 170 49h3l-3 26q0 75 190 187q178 83 242 84zM410 913v-6q0 -21 3 -32
q-26 -305 -26 -633q9 -20 9 -23h55q5 19 5 26v152q0 38 -3 98q22 99 67 147q94 92 201 92q116 0 187 -92q29 -42 70 -207l20 -228q10 -14 20 -14q52 0 52 11q11 29 11 75v29q0 102 -40 297q-46 135 -147 190q-63 34 -101 34q-131 0 -259 -118h-9q-20 15 -20 32q0 6 12 161
q0 23 -81 23q-26 -5 -26 -14z" />
    <glyph glyph-name="O" unicode="O" horiz-adv-x="2235" 
d="M664 1613h40q136 0 251 -141h5q19 0 133 60q24 12 49 12h8q24 0 70 -18q191 29 239 29q203 0 296 -86q27 -32 55 -107h6q59 23 100 23h9q137 0 239 -144q40 -78 40 -227v-6q0 -48 55 -75q90 -83 113 -150q23 -60 23 -95v-52q0 -126 -199 -316q-104 -75 -176 -84
q-7 -8 -26 -104q-57 -166 -175 -227q-103 -52 -193 -52h-26q-66 0 -185 46h-3q0 -40 -63 -98q-126 -83 -291 -83h-66q-185 0 -346 138q-41 30 -167 43q-130 33 -207 121q-108 111 -138 207l-26 101q-129 78 -202 288q-31 106 -31 176q0 52 43 135q-78 109 -78 167v35
q0 160 144 256q52 31 179 61q-6 14 -6 34q0 24 155 72q238 61 352 61zM615 694v-35q0 -238 319 -336q80 -21 124 -21h9q63 0 230 49q92 57 153 222q11 57 11 89v44q0 204 -123 342q-64 72 -260 72h-20q-226 0 -371 -219q-72 -115 -72 -207zM1104 1086q76 0 136 -64
q73 -42 118 -184q8 -52 8 -78v-29q0 -159 -141 -299q-79 -52 -152 -52q-171 0 -280 101q-72 79 -72 227v29q0 193 225 300q77 49 158 49z" />
    <glyph glyph-name="P" unicode="P" horiz-adv-x="1981" 
d="M1346 1595h32q156 0 230 -112q25 -52 32 -83q95 14 132 14q141 0 188 -98q52 -70 52 -193q0 -14 -12 -60v-9q0 -15 69 -89q72 -108 72 -193v-43q0 -167 -190 -300q35 -135 35 -164q0 -38 -41 -150q-42 -50 -132 -104q-233 -135 -426 -135q-16 3 -23 3q-19 -84 -61 -112
q-121 -49 -216 -49h-43q-136 0 -357 112q-46 16 -196 37q-178 47 -274 168q-92 97 -92 201v43q-72 12 -112 35q-98 72 -156 279q-11 76 -11 101q0 69 46 153v8q-52 78 -52 150v29q0 128 104 245q84 83 219 83h28q0 87 29 110q112 66 265 66q168 0 363 -81q2 -5 75 -46
q37 71 86 112q63 47 228 47q54 25 109 25zM615 1140q-29 -163 -49 -374q-35 -198 -35 -403v-127q0 -144 12 -144q19 -14 29 -14q11 20 48 331q3 19 3 60q9 21 26 21h3l115 -18h139q168 0 308 141q60 78 60 150v26q0 84 -175 225q-174 126 -484 126zM779 1054h3q46 0 170 -86
q86 -42 121 -121q23 -38 23 -72q0 -136 -265 -188q-45 -5 -141 -11q-18 7 -18 20q32 56 61 288v40q-2 98 -17 98v12q51 20 63 20z" />
    <glyph glyph-name="Q" unicode="Q" horiz-adv-x="1863" 
d="M920 1387h49q186 0 343 -199h3q30 31 184 72q44 8 83 8q116 -4 277 -69q164 -112 164 -319q0 -129 -138 -274q-3 -5 -3 -11v-3q37 -99 37 -113q0 -121 -112 -239q-109 -95 -276 -95q-53 0 -142 23h-5q-28 -112 -95 -161q-163 -89 -254 -89h-37q-111 0 -265 115h-6
q-56 -77 -164 -110q-33 -5 -46 -5h-23q-130 0 -245 124q-31 46 -63 132q0 17 -136 29q-106 35 -147 101q-63 94 -63 193v43q0 111 95 204q12 14 20 26q-70 89 -80 153q-3 29 -3 46v29q0 201 187 265q151 49 236 49q143 0 314 -113l14 -3q31 94 95 130q110 61 202 61z
M399 730v-3q0 -107 118 -184q93 -104 337 -162q66 0 236 41q13 0 89 -153q15 -20 29 -20q58 9 58 29q-26 82 -95 178q0 25 57 32q50 22 81 101q20 44 20 92v26q0 122 -167 273q-130 84 -216 84q-251 -20 -251 -35q-167 -71 -207 -121q-89 -98 -89 -178zM860 992h20
q107 0 170 -81q132 -106 132 -170q9 -17 9 -57v-12q0 -56 -61 -118q-5 -3 -11 -3q-15 9 -78 127q-19 28 -72 135q-48 67 -69 67h-3q-40 -13 -40 -23q173 -283 201 -323q4 0 15 -14v-9q-12 -20 -29 -23q-208 0 -208 17q-84 33 -155 87q-69 66 -69 181v3q0 154 193 210
q35 6 55 6z" />
    <glyph glyph-name="R" unicode="R" horiz-adv-x="1653" 
d="M1173 1237h38q129 0 239 -95q72 -93 72 -153q20 -98 52 -98q128 -68 138 -95q101 -128 101 -219v-43q0 -112 -164 -268l-46 -124q-42 -70 -104 -100q-228 -93 -400 -93h-21q-135 0 -285 87q-4 3 -17 3q-61 -56 -92 -78q-72 -43 -184 -43h-47q-129 0 -224 152
q-30 35 -121 35l-17 -3q-87 0 -159 95q-80 82 -80 199v14q0 153 92 231q-104 127 -104 198v41q0 145 204 276q121 49 208 49q93 0 161 -66l12 -3q123 19 123 37q65 41 139 41q177 0 270 -110q120 130 176 130q18 3 40 3zM471 908v-2q0 -120 -9 -516v-60q0 -82 26 -214
q14 -14 32 -14h8q18 0 18 17v38q0 19 -3 34q0 41 31 219q0 58 29 58q256 -232 323 -326q29 -31 57 -31h38q0 46 -124 198q-76 108 -144 170q-18 15 -58 38l-3 11q6 20 24 20q91 -20 184 -20q203 0 343 69q89 72 89 116v17q0 56 -87 101q-141 60 -417 60q-232 17 -328 17h-29
zM897 862q42 0 259 -63q58 -50 58 -69v-9q-24 -101 -75 -101q-77 -25 -127 -25h-75q-93 0 -204 2q-48 -5 -75 -5q-17 7 -17 20q5 25 5 69v3q0 78 -26 144v3q0 7 29 17q25 -3 29 -3q181 17 219 17z" />
    <glyph glyph-name="S" unicode="S" horiz-adv-x="1607" 
d="M471 1554h37q121 0 277 -75q89 -78 126 -153q19 -17 32 -17h17q16 0 72 60q53 26 185 55q13 0 28 3q145 0 222 -95q100 -97 113 -167q12 -87 34 -87l75 -63q78 -96 78 -271v-43q0 -143 -101 -282q-168 -153 -205 -153q-25 0 -46 -72q-37 -51 -132 -124q-135 -83 -239 -83
q-25 0 -147 23h-6q-20 0 -98 -55q-75 -37 -124 -37h-37q-98 0 -328 173q-30 25 -61 97l-6 3h-43q-115 9 -256 133q-63 66 -63 138v3q0 124 97 225v2q-129 104 -129 150q-3 11 -3 23v26q0 96 75 184q70 72 129 72q42 -2 47 -2q24 2 40 2q-9 35 -12 64q0 125 205 299
q63 44 147 44zM488 880q0 -147 150 -205q138 -76 181 -106q124 -106 124 -173q0 -58 -75 -121q-55 -29 -141 -29h-32l-155 20q-15 0 -15 -17v-9q0 -49 188 -49q196 0 236 46q92 55 92 127v3q0 50 -101 179q-90 81 -230 164q-110 61 -110 144q24 161 44 161q42 69 178 69
q77 0 167 -66l49 -32h3q37 76 37 81q-113 78 -265 78h-20q-227 0 -296 -211q-5 -16 -9 -54z" />
    <glyph glyph-name="T" unicode="T" horiz-adv-x="1938" 
d="M592 1556h34q109 0 231 -92q65 -76 83 -126q66 43 112 43q38 -6 49 -6t87 52q60 37 152 37q153 0 237 -155q82 34 132 34h9q169 0 299 -158q81 -119 81 -193v-37q0 -77 -138 -193q0 -6 -15 -21q69 -79 69 -123q3 -11 3 -32v-17q0 -158 -334 -288q-72 -30 -72 -58
q0 -207 -440 -300q-25 -5 -64 -5h-72q-59 0 -164 57q-7 3 -29 6q-121 -17 -167 -17q-132 0 -279 127q-70 33 -112 129q-20 69 -72 69q-75 0 -150 90q-104 180 -104 239l-3 20q0 6 9 72q0 14 -66 63q-58 72 -58 135v26q0 72 107 173l20 23q-38 47 -38 75q15 151 43 184
q103 113 225 113q89 0 176 -75h3l23 43q24 44 121 75q39 11 72 11zM586 1090q0 -21 55 -35q113 -50 236 -77l6 -12q-38 -96 -116 -409q-34 -100 -123 -325q61 -18 77 -18q25 0 61 156q99 246 138 417l37 156q7 6 12 6q85 0 227 -43h6q23 11 23 69q-109 66 -363 124
q-221 51 -239 51q-37 0 -37 -60z" />
    <glyph glyph-name="U" unicode="U" horiz-adv-x="2033" 
d="M603 1666h41q132 0 319 -110q69 -63 98 -112q13 -11 89 -23q11 -7 44 -43q3 0 8 -3q87 29 138 29q168 0 265 -159q12 -34 21 -34q92 43 152 43h20q145 0 274 -144q32 -59 32 -109q0 -53 -32 -144q0 -14 52 -49q69 -81 69 -159v-17q0 -83 -133 -228q-96 -84 -181 -95
l-3 -5v-23q0 -97 -109 -176q-102 -98 -173 -98q-48 -17 -89 -17h-26q-61 0 -202 52h-14q-99 -107 -139 -107q-26 -14 -72 -14h-20q-70 0 -187 54l-14 3q-18 0 -69 -43q-38 -17 -70 -17h-11q-134 0 -314 147q-92 72 -92 155q0 47 -32 61q-30 7 -112 51q-85 76 -107 159
q-49 126 -49 222q0 42 26 112v6q0 3 -49 37q-112 127 -112 210v26q0 105 219 234q59 23 190 43q38 120 115 196q122 89 239 89zM1260 1032q-11 -21 -20 -115q-20 -75 -87 -392q-22 -72 -83 -123q-77 -58 -156 -58q-136 0 -173 233q-8 34 -11 127q3 194 3 251q0 43 -55 43
q-2 0 -23 3q-49 0 -49 -64l-6 -66q0 -359 90 -495q80 -124 230 -124h17q68 0 205 55q104 62 158 247q13 89 20 98l15 3h3q11 -5 11 -20v-170q15 -166 29 -216q14 -49 69 -49q0 -4 29 -6q17 0 23 26q-15 657 -29 657q-14 147 -32 147q0 8 -178 8z" />
    <glyph glyph-name="V" unicode="V" horiz-adv-x="1996" 
d="M500 1487h25q110 0 311 -152q35 -44 44 -44q50 49 115 49q99 98 305 98h9q84 0 118 -95l6 -46q108 32 184 32q165 0 225 -196q0 -51 98 -63q113 -39 167 -147q43 -89 43 -159v-40q0 -54 -18 -121q-2 -4 -2 -20q0 -13 26 -115v-55q0 -80 -116 -178q-94 -54 -207 -139
q-82 -46 -164 -46h-6q-30 0 -107 12h-2q-16 0 -64 -52q-46 -45 -167 -72q-84 -20 -127 -20h-63q-125 0 -239 121q-56 45 -72 49q-7 0 -104 -44q-75 -17 -129 -17q-96 0 -245 164q-26 38 -29 38q-19 -9 -40 -9h-12q-88 0 -236 161q-75 100 -75 167v3q0 24 3 55q0 7 -52 55
q-63 83 -63 173v28q0 95 69 147q-32 77 -32 113v20q0 153 205 190q18 3 40 3q76 0 147 -38v3q96 187 231 187zM1009 341q-46 0 -98 95q-66 199 -190 475q-26 69 -49 69q-12 0 -66 -14q0 -9 92 -271q106 -234 228 -443q28 -26 60 -26q80 0 182 138q178 249 259 421
q92 173 92 193v14q-16 0 -55 11h-14q-45 0 -173 -221q-167 -287 -167 -331q-60 -110 -101 -110z" />
    <glyph glyph-name="W" unicode="W" horiz-adv-x="1466" 
d="M379 1628h54q93 0 228 -129l11 -9l49 35q43 23 84 23h20q255 0 334 -236q0 -44 20 -44q196 -32 233 -66q72 -62 72 -124q-2 -29 -2 -46q0 -8 66 -72q78 -105 78 -181v-46q0 -39 -84 -150q0 -12 -3 -12q58 -116 58 -155q0 -101 -110 -205q-72 -56 -152 -86
q-109 -40 -179 -40q-6 0 -86 -66q-155 -101 -257 -101h-17q-96 0 -201 98q-35 8 -47 8q-83 -11 -103 -11h-6q-208 0 -351 239q-22 34 -69 184q-179 118 -179 248v29q0 57 49 129v3q-46 55 -46 110v17q0 58 46 147q15 15 49 40q-84 66 -84 161q0 81 98 150q26 20 176 46
q74 87 109 87q69 25 142 25zM278 1153q-9 -57 -15 -590q0 -152 55 -222q74 -52 130 -52q88 0 187 124q37 63 37 156q7 26 26 26q15 -9 15 -21q-6 -32 -6 -46q0 -177 55 -201q41 -41 103 -41h9q178 0 213 573q9 62 9 173v38q0 37 -38 37h-31q-23 0 -23 -52q-41 -206 -55 -348
q-33 -226 -66 -268q-24 -23 -52 -23q-47 0 -72 101q-9 178 -9 196q14 213 14 420q-13 0 -28 3q-41 0 -41 -37l-37 -286q0 -112 -43 -256q-20 -107 -61 -144q-52 -37 -89 -37h-9q-124 0 -124 224q0 135 29 522v17q-10 14 -63 14h-20z" />
    <glyph glyph-name="X" unicode="X" horiz-adv-x="1693" 
d="M595 1531q96 0 201 -72q48 -53 78 -124q197 57 236 57h66q21 0 67 -31h2l47 2q97 -14 149 -46q84 -48 139 -213q15 -7 106 -29q167 -85 167 -262v-46q0 -33 -52 -106l-40 -64q35 -49 35 -92v-20q0 -116 -139 -202q-70 -37 -173 -37q-55 6 -77 6h-6v-3q0 -45 6 -127
q0 -148 -228 -201q-25 -3 -43 -3h-49q-130 0 -294 46h-8q-20 0 -93 -32q-52 -8 -167 -11q-132 0 -270 172q-35 67 -46 70q-11 5 -23 5h-44q-96 0 -146 72q-113 125 -113 271q6 43 6 72q0 9 -40 72q-9 26 -9 43v20q0 90 107 199q-38 51 -38 121q0 139 118 239q-37 60 -37 95
v3q0 93 115 138q47 15 101 15q77 0 161 -49q5 -3 14 -3q111 55 173 55h41zM407 1194q173 -367 202 -412q9 0 14 -26q-6 -10 -77 -64q-97 -100 -188 -146q-118 -76 -187 -153q71 -66 89 -66q20 0 147 92q114 74 291 216q13 6 29 6q74 -179 219 -450q37 -34 92 -34q4 0 46 3v3
q0 23 -181 388q-19 43 -61 95q-8 15 -8 29q3 18 69 49q172 118 446 349q3 8 6 8q-31 49 -58 49q-52 -8 -319 -170l-216 -144l-18 -3h-14q-9 2 -104 188q-112 216 -135 218q-63 -9 -84 -25z" />
    <glyph glyph-name="Y" unicode="Y" horiz-adv-x="1831" 
d="M356 1496h43q139 0 270 -72q66 -55 87 -92l20 -6h12q168 58 239 58q0 3 31 3h23q67 0 144 -47l12 -2q131 23 173 23q186 0 262 -121q44 -57 77 -162q7 -72 61 -72q181 -50 181 -161v-58q0 -113 -172 -253l-9 -11q20 -42 20 -78v-15q0 -105 -135 -167q-53 -34 -213 -98
q-23 -19 -23 -69q-33 -70 -182 -141q-98 -37 -164 -37h-63q-27 0 -190 49q-233 8 -268 28q-160 45 -234 147q-37 64 -51 67q-40 -3 -49 -3q-142 0 -280 216q-46 83 -46 173q0 19 6 69q0 18 -58 80q-20 36 -20 75v55q0 90 81 167v6q-98 82 -98 147q-3 0 -3 20v29
q0 117 89 178q43 17 72 17h15q46 0 170 -17q8 0 51 49q37 26 119 26zM338 900q0 -167 133 -271q48 -32 112 -32q91 0 164 6q30 -3 35 -6q-39 -120 -41 -409q0 -37 78 -37q23 8 23 29q0 129 32 397q0 13 112 18q147 38 187 86q90 87 130 259l9 72h-35q-23 0 -60 3
q-23 0 -75 -127q-99 -134 -182 -173q-167 -86 -351 -86h-14q-93 0 -144 124q-6 27 -6 43v6q0 12 6 138v43q0 92 -35 92q-22 6 -40 6h-9q-14 0 -29 -181z" />
    <glyph glyph-name="Z" unicode="Z" horiz-adv-x="1889" 
d="M540 1467h63q202 0 285 -147q28 0 41 -17h3q37 27 244 72h23q86 0 153 -84q123 41 167 41q168 0 259 -254q15 -49 15 -103v-9q0 -20 43 -20q68 -18 141 -89q72 -99 72 -167v-6q0 -92 -121 -161q-28 -12 -92 -18q8 -32 8 -63v-17q0 -113 -204 -234q-113 -43 -156 -43
q-53 3 -89 3v-14q0 -136 -132 -173q-85 -35 -147 -35q-57 0 -219 29h-6q-83 -40 -132 -40h-32q-205 0 -527 325q-45 42 -156 118q-161 150 -161 176q-26 59 -26 109v23q0 39 49 147v9q0 11 -54 104q-12 21 -12 46v14q0 90 230 265q72 40 124 40h9q38 74 124 113
q93 60 213 60zM525 1064q0 -27 -5 -75q0 -14 106 -29q328 -60 438 -60l14 3q14 -6 15 -12v-20q-10 -13 -205 -141q-208 -142 -394 -288q-15 -19 -15 -46v-9q0 -36 52 -43q102 -29 496 -46q9 -3 181 -17q29 6 29 51q0 12 -421 44q-86 14 -135 14h-3q-27 0 -63 -9
q-35 0 -52 23q126 113 242 167q104 59 340 245q31 35 31 67q-11 126 -20 161q-104 -3 -150 -3q-205 0 -481 23z" />
    <glyph glyph-name="a" unicode="a" horiz-adv-x="1811" 
d="M1436 1315h51q163 0 274 -179q20 -46 72 -202l55 -34q58 -42 83 -147v-6q0 -137 -101 -325q-35 -49 -72 -69q-31 -12 -31 -18q3 -52 3 -69q0 -161 -208 -239q-36 -8 -69 -8h-9q-88 0 -187 74q-36 -58 -115 -112q-96 -63 -173 -63h-43q-77 0 -233 118q-91 -66 -138 -66
q-2 0 -38 -3q-57 0 -193 103q-32 52 -57 52q-41 -8 -84 -8q-118 0 -230 77q-84 102 -84 257q0 92 52 155v3q-121 127 -121 199v29q0 98 63 210q155 164 346 164h6q145 0 268 -81q21 -18 95 -98l8 -5h6q20 68 60 92q111 75 173 75q19 0 69 54q110 67 176 67h23q51 0 121 -46
q95 49 182 49zM321 327v-15q0 -29 46 -29q19 -2 37 -2q35 0 35 20v17q9 217 29 233q0 4 60 15q406 0 573 -52h38q37 0 43 -84q13 -29 26 -121q30 -49 109 -49h15q104 0 104 18q-38 175 -81 273q-31 78 -153 211q-205 149 -325 149q-33 0 -84 -3q-31 6 -72 6h-26
q-123 0 -244 -103q-130 -158 -130 -484zM825 857h6q144 0 279 -231l3 -20q0 -20 -23 -20q-31 14 -225 29q-80 0 -262 3q-38 -3 -63 -3q-20 9 -20 23q36 105 89 164q0 17 170 49q12 6 46 6z" />
    <glyph glyph-name="b" unicode="b" horiz-adv-x="1805" 
d="M632 1591h204q83 -50 150 -156q63 52 153 52h3q210 0 311 -178q24 -57 31 -98q6 0 41 20l17 3q42 0 254 -110q65 -55 89 -106q52 -119 52 -216v-9q0 -131 -61 -193q89 -150 89 -247v-35q0 -90 -69 -181q-37 -35 -95 -35q-14 0 -178 20q11 -55 11 -66v-17q0 -69 -132 -116
q-23 -5 -49 -5h-15q-86 0 -256 86q-94 -72 -190 -72q-144 0 -334 153q-2 6 -23 17q-74 -58 -147 -58q-182 0 -323 234q-25 51 -51 138q-17 16 -104 32q-170 62 -170 144v28q0 64 104 268q-35 26 -35 72q0 83 84 170q40 29 60 29q9 0 78 -9q3 0 52 46q29 16 57 18
q15 -3 29 -3q54 161 95 161q0 6 29 6q24 -3 83 -3q0 76 61 153q42 36 95 63zM494 1136h-3q-104 -497 -104 -588q-6 -100 -8 -270q0 -50 233 -72q119 -26 199 -26q58 0 391 46q98 0 251 86q34 33 34 61v29q0 137 -210 216q-73 14 -144 17q-11 6 -11 8v6q0 29 51 29
q235 17 268 49q78 43 78 104v14q-23 96 -202 196q-34 20 -169 34q-41 36 -594 64q-19 -3 -60 -3zM554 1116q158 -44 392 -61q230 -61 274 -115q86 -70 86 -86v-26q0 -55 -112 -55h-23q-457 32 -599 32h-15q-81 5 -81 23q0 14 67 224l3 15q0 5 -6 23q8 26 14 26zM508 678
q26 -20 208 -40q129 -18 377 -72q58 -14 167 -118q6 -19 6 -26v-3q0 -61 -87 -107q-66 -43 -348 -43q0 -3 -67 -3q-235 23 -288 32l-8 11q32 57 32 211v37q0 27 -3 115z" />
    <glyph glyph-name="c" unicode="c" horiz-adv-x="2085" 
d="M1366 1603h32q63 0 95 -78q8 0 78 3q149 0 285 -107q101 -100 101 -202q4 0 6 -25h5q93 0 211 -95q66 -73 66 -133v-29q0 -67 -113 -158q-8 -11 -8 -20v-12q8 -39 8 -55v-31q0 -240 -184 -323q-38 -20 -161 -29q-5 3 -12 3l-17 -75q-49 -93 -164 -167q-72 -31 -138 -31
q-32 0 -208 28v-2q-35 -91 -106 -124q-54 -23 -92 -23h-67q-118 0 -397 109l-17 3h-6q-62 -17 -69 -17q-95 0 -265 161q-104 120 -127 193q-3 7 -69 14q-122 72 -187 277q-6 27 -6 43v20q0 102 179 159q6 0 37 8v3q-63 60 -63 87v11q0 58 123 138q192 88 193 92v29
q0 57 78 107q109 75 219 75h32q76 0 178 -41h9q11 0 49 35l43 9q47 -3 92 -3q29 0 110 77q130 96 247 96zM471 695v-37q0 -186 224 -354q79 -58 285 -58q28 0 104 -3q271 17 271 29q11 0 20 60v6q0 7 -14 9q-173 6 -219 8l-15 -2q-186 0 -414 89q-89 53 -136 178
q-3 15 -3 35v49q0 174 147 239q134 55 303 55q47 0 354 -46q56 0 75 121v2q0 30 -205 90q-51 8 -132 11q-373 0 -562 -210q-83 -138 -83 -271z" />
    <glyph glyph-name="d" unicode="d" horiz-adv-x="1555" 
d="M724 1522h38q93 0 187 -58l14 -3q78 38 133 38q121 0 285 -104q124 -113 147 -219q11 -34 20 -149q0 -17 89 -110q78 -119 78 -245q0 -194 -245 -354q-20 -13 -20 -37v-23q0 -139 -144 -268q-101 -72 -222 -72h-3q-130 0 -319 118q-41 20 -67 20q0 -36 -72 -63
q-60 -12 -95 -12q-129 0 -299 124q-41 40 -46 40q-21 -11 -46 -11q-109 0 -242 204q-32 65 -32 110q0 4 3 46q0 4 -26 80v23q0 54 69 133q31 23 49 23v3q0 7 -29 52q-11 33 -11 60q0 115 193 147h17q45 0 115 -32v64q0 77 46 115q-5 56 -5 83q0 76 86 118q21 9 49 12
q32 -3 57 -3q26 77 81 110q90 40 167 40zM574 1162l-37 -207q-49 -250 -95 -715v-14q0 -6 78 -9q10 0 135 3q1 0 12 3l17 -3q205 0 345 35q156 42 228 132q72 76 72 210q0 171 -176 300q-212 121 -558 265h-21zM655 1064h9q4 0 11 -12v-11q0 -3 -3 -3q0 -24 61 -55
q19 -16 236 -118q105 -77 173 -173q17 -29 37 -92v-29q0 -90 -121 -158q-151 -98 -351 -98q-45 -6 -164 -32h-3q-23 3 -23 21q60 254 112 567q9 22 17 84q-5 85 -8 89q5 13 17 20z" />
    <glyph glyph-name="e" unicode="e" horiz-adv-x="2165" 
d="M615 1450h20q25 0 101 -38q60 0 98 -37l17 -3h86q127 0 159 -63q0 -6 3 -6q127 72 230 72q97 0 167 -69q16 -12 23 -12q76 38 118 38h32q305 0 383 -213q11 -33 11 -69q-5 -42 -28 -139q163 0 218 -92q72 -101 72 -207v-20q0 -115 -74 -237q-89 -101 -162 -123v-29
q0 -105 -132 -190q-82 -41 -156 -41q-100 0 -233 52h-12q-19 0 -103 -60q-79 -46 -121 -46h-40q-69 0 -288 152q-10 11 -32 23h-9q-51 -51 -170 -51q-95 -44 -124 -44h-28q-58 0 -248 90q-28 21 -109 109q-52 4 -133 72q-164 141 -164 228q0 6 -69 49q-78 68 -78 161v32
q0 142 118 213q61 41 61 95q21 66 109 126q72 48 173 58q3 0 6 9q-6 10 -6 23v8q0 75 207 162q66 17 107 17zM652 920q0 -139 170 -187q279 -90 374 -90q15 -17 15 -20q-6 -20 -20 -20q-192 43 -251 43h-17q-70 0 -245 -57q-81 -63 -104 -144v-20q0 -105 237 -167
q61 -26 190 -26q91 -21 155 -21h35q148 -25 164 -25q17 2 17 23v17q-287 17 -466 57q-114 32 -156 64q-48 57 -52 106q0 68 92 101q175 20 320 20q30 0 147 -8h3q6 0 8 20q0 81 -23 81l-403 123q-72 52 -72 133q0 69 124 92q64 14 107 14q71 0 417 -72h3q12 5 12 21v8
q0 38 -153 107q-60 29 -239 43q-21 3 -52 3h-6q-136 0 -155 -26q-42 -6 -159 -133q-17 -35 -17 -60z" />
    <glyph glyph-name="f" unicode="f" horiz-adv-x="1748" 
d="M1078 1268h15q32 0 106 -57q84 40 153 40q142 0 274 -152q46 -78 46 -136q111 -25 152 -52q84 -67 84 -135v-58q0 -92 -95 -195q-50 -44 -124 -44h-43v-5q20 -58 20 -84q0 -89 -110 -164q-132 -89 -230 -89q-36 -3 -40 -3q-14 0 -107 17q3 -15 3 -17q0 -68 -81 -139
q-89 -40 -155 -40q-25 0 -193 43q-11 0 -63 -43q-54 -37 -107 -37h-3q-69 0 -276 80q-85 39 -199 144q-53 60 -107 75q-81 49 -126 190q-20 75 -20 127v3q0 30 43 63q-55 81 -55 118v26q0 84 130 205q83 69 224 69q10 0 61 -3q22 63 89 104q158 68 222 72q34 14 54 14h12
q50 0 173 -66l14 -3q34 0 72 58q90 74 187 74zM525 975q15 -251 15 -360v-69q0 -89 -6 -193l6 -214q19 -42 37 -54q15 0 43 201q0 93 44 93q206 25 337 25q30 0 109 -2q69 6 69 20q0 32 -112 46q-21 6 -107 11q-81 -11 -144 -11h-37q-27 0 -75 3q-22 -4 -43 -20h-9
q-20 0 -20 25q14 29 14 58q0 22 -5 164l-3 6q0 26 29 26q36 0 527 -38h57q112 0 130 49v9q0 43 -113 84q-94 60 -319 97q-127 36 -392 49q-30 -5 -32 -5z" />
    <glyph glyph-name="g" unicode="g" horiz-adv-x="1780" 
d="M707 1516h23q142 0 213 -129q19 -61 29 -61q28 0 112 -29h12q93 18 141 18q135 0 175 -67v-3q71 29 107 29h23q156 0 256 -184q23 -75 23 -124l-11 -141q0 -6 63 -75q67 -103 67 -167v-17q0 -135 -119 -262q-100 -72 -149 -72q-20 -6 -20 -38q0 -100 -84 -155
q-152 -72 -219 -72q-183 0 -256 37h-6q-6 0 -86 -49q-122 -37 -239 -37q-216 0 -366 135q-42 -32 -81 -32h-20q-129 0 -308 208q-27 45 -49 126q-89 55 -89 191q0 107 89 218q-98 102 -98 167v55q0 94 130 147v3q-95 98 -95 150q0 82 311 187q36 9 63 9h23q58 0 112 -61h3
q92 70 236 89q57 6 84 6zM263 580q0 -99 72 -250q79 -144 245 -211q140 -31 242 -31h89q88 0 136 60q18 60 37 66q54 55 159 260q28 38 28 49q-49 46 -227 86q-318 101 -360 101q-15 -34 -23 -64q27 -22 196 -66q134 -57 273 -86l9 -12v-8q0 -8 -32 -49q-96 -188 -115 -254
l-17 -8q-28 5 -43 5q-95 -5 -119 -5q-133 0 -273 95q-138 119 -138 290q0 182 83 248q179 187 435 187q100 0 242 -40q12 0 34 -6q49 100 49 118v20q-163 61 -262 61h-31q-239 0 -476 -161q-140 -105 -198 -294q-15 -55 -15 -101z" />
    <glyph glyph-name="h" unicode="h" horiz-adv-x="1794" 
d="M770 1591h12q59 0 132 -55q32 -30 58 -98l135 14q94 0 133 -100q5 -35 5 -55v-3h3q16 0 26 3q222 0 308 -72q67 -53 67 -121q0 -10 -3 -26q3 -6 3 -9h3q164 -13 181 -43q52 -29 92 -164q9 -56 9 -78q0 -64 -55 -219q75 -106 75 -193v-89q0 -45 -86 -158
q-52 -70 -127 -110q-31 -20 -64 -20q-16 0 -77 20q-4 0 -18 -69q-30 -67 -126 -101q-75 -26 -139 -26q-152 0 -244 101q-53 -64 -101 -78q-100 -54 -187 -54h-21q-105 0 -230 173q-22 25 -127 25q-96 20 -175 84q-10 6 -75 86q-118 0 -202 110q-101 117 -101 216
q0 44 44 144q-58 78 -58 144v31q0 84 81 202q27 27 63 55q-60 72 -60 118v17q0 145 227 225q76 37 135 37q29 0 78 -6q27 67 69 87q85 43 147 43h55q38 0 135 12zM255 303q7 -57 37 -57q59 0 69 86q29 77 98 317q10 9 23 14q102 0 461 -95q76 -11 291 -60q37 -6 69 -6h17
q23 0 29 -14v-12q-98 -298 -98 -325q-14 -73 -14 -104v-12l60 -17q37 41 75 141q125 389 167 628q38 148 38 164v20q0 23 -46 23q-49 0 -64 -97l-89 -300q-6 -5 -29 -9q-134 0 -731 139q-58 14 -133 17l-6 9v2q18 158 55 409q6 38 6 69q0 26 -118 26q-25 0 -32 -60
q-20 -163 -92 -553q-43 -303 -43 -343z" />
    <glyph glyph-name="i" unicode="i" horiz-adv-x="2076" 
d="M577 1541h101q34 0 176 -101q27 -23 75 -89h3q6 0 43 3l92 -3q9 0 101 8h5q112 0 176 -100q15 -37 15 -67v-14h2q109 49 165 49h14q151 0 259 -150q23 -48 23 -83v-12q1 -6 6 -6q11 0 98 6q102 -7 216 -92q89 -97 89 -190v-3q0 -97 -80 -219q31 -76 31 -130
q0 -72 -72 -204q-68 -115 -213 -161q-38 -12 -158 -32q-70 -80 -190 -153q-112 -57 -251 -80h-49q-33 0 -178 54q-125 81 -133 81h-9q-98 -37 -144 -37q-124 0 -282 138q-24 14 -57 14l-26 -3q-108 10 -219 78q-176 113 -176 280q0 49 -43 69q-78 65 -112 216v37
q0 119 89 213q34 17 34 26q-158 73 -158 176v17q0 91 141 248q118 97 205 103h2q65 -5 70 -5h2l211 98q56 20 106 20zM422 1008v-37q0 -44 46 -44q51 -8 95 -8h210q17 0 29 -18v-8q-12 -36 -12 -41q0 -145 -23 -515q9 -56 9 -66q0 -23 -26 -23l-230 26q-182 -10 -182 -32
l-3 -40q2 -23 23 -23h6q229 -18 510 -24q136 12 184 12h23q154 0 553 -52h6q14 18 14 38q-11 4 -115 11q-69 12 -256 35q-253 69 -363 69q-13 0 -23 210l23 374q-6 26 -6 38v6q7 12 20 17q53 -3 67 -3q86 6 123 6h15l302 -26v3q18 31 18 57v6q0 35 -61 40l-14 -2
q-400 28 -455 28h-23q-452 -3 -484 -14z" />
    <glyph glyph-name="j" unicode="j" horiz-adv-x="1880" 
d="M652 1473q195 0 228 -38q6 0 66 -48q7 0 58 -29h8q75 26 110 26q1 3 26 3q140 0 198 -87q15 -11 29 -11q83 23 112 23q84 0 173 -101q21 -30 52 -104q8 -8 92 -17q61 -9 159 -101q77 -98 77 -199q0 -117 -132 -201l14 -78v-6q0 -91 -150 -201q-77 -46 -126 -46h-20
q-53 0 -144 46q0 -120 -188 -205q-136 -46 -195 -46h-35q-73 0 -233 40h-9q-44 -79 -63 -103q-77 -72 -124 -72h-40q-86 0 -251 144q-18 21 -35 46l-103 -12q-94 0 -219 150q-55 58 -55 213l-57 89q-35 72 -35 133v20q0 68 63 135q7 0 23 15q-72 99 -72 155q0 98 288 257
q70 28 142 28h11l14 -2q18 52 93 95q197 89 250 89zM672 1029q-96 0 -337 15q-36 -6 -46 -6v-72q438 -43 501 -43q7 0 32 3q17 0 20 -23v-121q0 -118 -89 -242q-94 -75 -187 -75q-139 0 -196 115q0 5 -35 6h-5q-21 0 -21 -20v-9q0 -95 130 -155q102 -26 158 -26h41
q194 0 325 187q32 59 55 184q9 46 9 75v23q0 23 -3 55q4 23 23 23h141q33 0 152 -6q18 18 18 40v6q0 98 -72 98h-12q-288 -32 -383 -32h-219z" />
    <glyph glyph-name="k" unicode="k" horiz-adv-x="1771" 
d="M586 1565h29q68 0 170 -69q27 -17 95 -26q18 -10 49 -46q96 32 135 32q142 0 158 -52q17 -20 21 -20q96 14 135 14h17q153 0 236 -86q21 -22 46 -90q15 -7 84 -23q55 -18 124 -106q46 -57 46 -113q0 -109 -107 -195q-9 -9 -14 -9q0 -7 49 -86q17 -44 17 -75v-20
q0 -122 -176 -268q-22 -16 -89 -46l-3 -15v-20q0 -93 -129 -158q-107 -72 -199 -72q-33 0 -112 20h-9q-15 0 -66 -55q-91 -63 -259 -63h-9q-149 0 -245 69q-50 25 -115 95q-20 6 -32 6q-63 -9 -86 -9q-117 0 -274 193q-60 98 -72 193q0 17 -77 92q-84 114 -84 202v26
q0 105 92 190q0 139 147 230q16 12 104 26q-12 44 -12 60q0 93 193 216q132 58 222 58zM540 1113v-20q-43 -238 -43 -527l-21 -317q0 -18 75 -38q15 173 49 343q3 28 3 61q0 15 12 20h5q29 0 78 -104q44 -66 107 -138q44 -73 92 -187q15 -12 26 -12q40 4 40 12
q0 38 -152 291q-30 55 -121 181q10 21 17 23h6l69 -17q292 0 366 196q40 100 40 138v23q0 7 -43 11q-24 0 -41 -69q-73 -158 -207 -210q-97 -40 -262 -40q-19 8 -23 17q29 57 29 216q3 12 11 141q0 23 -46 23q0 5 -49 9q-17 -7 -17 -26z" />
    <glyph glyph-name="l" unicode="l" horiz-adv-x="1615" 
d="M669 1502h38q118 0 225 -115q20 -14 40 -18q76 3 104 3q19 0 66 -17q134 23 164 23h29q100 0 161 -101q9 -55 55 -55q111 0 193 -132q31 -63 31 -147v-3q0 -124 -106 -259q-7 -23 -9 -23q38 -124 38 -176q0 -140 -147 -236q-116 -92 -219 -92q-13 0 -38 3q-5 -3 -11 -3
q0 -10 3 -61q0 -60 -52 -121q-81 -54 -225 -54h-63q-21 0 -193 20h-17q-110 -6 -116 -6q-190 0 -360 184q-8 32 -46 32q-122 0 -236 127q-54 83 -54 161v3q0 69 43 147v3q-89 61 -124 178q-3 16 -3 26v23q0 67 66 141q138 72 147 72v3q-106 96 -106 139v25q0 84 184 167
q99 29 184 29q35 0 115 -23q34 49 58 69q28 26 150 61q19 3 31 3zM534 1101q14 -136 124 -728q55 -222 60 -222h12q95 37 429 118q159 56 161 69q6 10 6 17v6q0 35 -29 38q-192 0 -412 -64q-58 -31 -66 -31h-3q-19 0 -69 265q-57 215 -57 325q-52 228 -70 228z" />
    <glyph glyph-name="m" unicode="m" horiz-adv-x="2237" 
d="M885 1656h35q157 0 282 -181l6 -3h9q81 11 112 11q160 0 222 -98l17 -3q80 18 95 18h17q109 0 188 -121l20 -72q72 8 86 8q138 0 282 -152q67 -91 67 -202v-40q0 -56 -21 -127q0 -7 72 -98q23 -53 23 -81v-25q0 -105 -126 -228q-62 -50 -136 -83q-91 -49 -198 -49
q-14 0 -98 2q-17 -51 -72 -86q-180 -86 -329 -86q-70 0 -175 28q-42 -84 -121 -158q-136 -112 -268 -112q-66 0 -176 54q-121 60 -181 61q-190 56 -274 167q-92 101 -92 176q0 25 20 83q-164 148 -164 248v8l9 208q0 32 -78 78q-98 88 -98 146v12q0 182 179 276q0 3 2 3
q-63 82 -63 127v6q0 116 268 227q66 18 118 18q89 0 187 -49q11 -12 35 -12q7 0 147 72q107 29 172 29zM376 999q-9 -156 -9 -210l3 -92q-12 -153 -12 -268v-176q1 -28 6 -28q69 4 69 11v9q-5 103 -5 115q2 319 247 423l29 3h26q84 0 121 -98q11 -43 11 -89q0 -111 -20 -196
q26 -6 38 -6h20q40 0 40 18q23 210 61 265q34 76 147 121q25 8 43 8h20q41 0 92 -92q12 -25 12 -55q0 -198 -44 -377h3q9 0 133 6q41 0 54 250v18q0 301 -164 374q-50 29 -106 29q-144 0 -254 -138q-8 -61 -31 -61h-12q-9 1 -34 78q-42 63 -136 63q-104 0 -201 -92
q-15 -15 -47 -63l-5 -3h-9q-26 0 -26 29q40 67 40 95q9 113 29 167q-13 6 -37 6h-20q-30 0 -72 -44z" />
    <glyph glyph-name="n" unicode="n" horiz-adv-x="1837" 
d="M675 1547h32q101 0 141 -90l81 9l63 -9h3q93 15 138 18q152 0 259 -104q21 -22 49 -87q29 -8 107 -20q222 -81 222 -268q0 -63 -44 -169h3q63 -24 170 -130q98 -105 98 -170v-20q0 -116 -253 -245q-44 -21 -44 -32q41 -149 41 -155q0 -97 -337 -164q-88 -15 -156 -15
q-34 -94 -115 -132q-100 -46 -176 -46h-5q-113 0 -334 98l-52 8q-29 -3 -43 -3q-180 0 -375 202q-135 160 -135 276q-173 183 -173 323v23q0 90 63 150q15 15 15 26q-32 78 -32 126q0 137 187 254q59 29 170 49h3l-3 26q0 75 190 187q178 83 242 84zM410 913v-6q0 -21 3 -32
q-26 -305 -26 -633q9 -20 9 -23h55q5 19 5 26v152q0 38 -3 98q22 99 67 147q94 92 201 92q116 0 187 -92q29 -42 70 -207l20 -228q10 -14 20 -14q52 0 52 11q11 29 11 75v29q0 102 -40 297q-46 135 -147 190q-63 34 -101 34q-131 0 -259 -118h-9q-20 15 -20 32q0 6 12 161
q0 23 -81 23q-26 -5 -26 -14z" />
    <glyph glyph-name="o" unicode="o" horiz-adv-x="2235" 
d="M664 1613h40q136 0 251 -141h5q19 0 133 60q24 12 49 12h8q24 0 70 -18q191 29 239 29q203 0 296 -86q27 -32 55 -107h6q59 23 100 23h9q137 0 239 -144q40 -78 40 -227v-6q0 -48 55 -75q90 -83 113 -150q23 -60 23 -95v-52q0 -126 -199 -316q-104 -75 -176 -84
q-7 -8 -26 -104q-57 -166 -175 -227q-103 -52 -193 -52h-26q-66 0 -185 46h-3q0 -40 -63 -98q-126 -83 -291 -83h-66q-185 0 -346 138q-41 30 -167 43q-130 33 -207 121q-108 111 -138 207l-26 101q-129 78 -202 288q-31 106 -31 176q0 52 43 135q-78 109 -78 167v35
q0 160 144 256q52 31 179 61q-6 14 -6 34q0 24 155 72q238 61 352 61zM615 694v-35q0 -238 319 -336q80 -21 124 -21h9q63 0 230 49q92 57 153 222q11 57 11 89v44q0 204 -123 342q-64 72 -260 72h-20q-226 0 -371 -219q-72 -115 -72 -207zM1104 1086q76 0 136 -64
q73 -42 118 -184q8 -52 8 -78v-29q0 -159 -141 -299q-79 -52 -152 -52q-171 0 -280 101q-72 79 -72 227v29q0 193 225 300q77 49 158 49z" />
    <glyph glyph-name="p" unicode="p" horiz-adv-x="1981" 
d="M1346 1595h32q156 0 230 -112q25 -52 32 -83q95 14 132 14q141 0 188 -98q52 -70 52 -193q0 -14 -12 -60v-9q0 -15 69 -89q72 -108 72 -193v-43q0 -167 -190 -300q35 -135 35 -164q0 -38 -41 -150q-42 -50 -132 -104q-233 -135 -426 -135q-16 3 -23 3q-19 -84 -61 -112
q-121 -49 -216 -49h-43q-136 0 -357 112q-46 16 -196 37q-178 47 -274 168q-92 97 -92 201v43q-72 12 -112 35q-98 72 -156 279q-11 76 -11 101q0 69 46 153v8q-52 78 -52 150v29q0 128 104 245q84 83 219 83h28q0 87 29 110q112 66 265 66q168 0 363 -81q2 -5 75 -46
q37 71 86 112q63 47 228 47q54 25 109 25zM615 1140q-29 -163 -49 -374q-35 -198 -35 -403v-127q0 -144 12 -144q19 -14 29 -14q11 20 48 331q3 19 3 60q9 21 26 21h3l115 -18h139q168 0 308 141q60 78 60 150v26q0 84 -175 225q-174 126 -484 126zM779 1054h3q46 0 170 -86
q86 -42 121 -121q23 -38 23 -72q0 -136 -265 -188q-45 -5 -141 -11q-18 7 -18 20q32 56 61 288v40q-2 98 -17 98v12q51 20 63 20z" />
    <glyph glyph-name="q" unicode="q" horiz-adv-x="1863" 
d="M920 1387h49q186 0 343 -199h3q30 31 184 72q44 8 83 8q116 -4 277 -69q164 -112 164 -319q0 -129 -138 -274q-3 -5 -3 -11v-3q37 -99 37 -113q0 -121 -112 -239q-109 -95 -276 -95q-53 0 -142 23h-5q-28 -112 -95 -161q-163 -89 -254 -89h-37q-111 0 -265 115h-6
q-56 -77 -164 -110q-33 -5 -46 -5h-23q-130 0 -245 124q-31 46 -63 132q0 17 -136 29q-106 35 -147 101q-63 94 -63 193v43q0 111 95 204q12 14 20 26q-70 89 -80 153q-3 29 -3 46v29q0 201 187 265q151 49 236 49q143 0 314 -113l14 -3q31 94 95 130q110 61 202 61z
M399 730v-3q0 -107 118 -184q93 -104 337 -162q66 0 236 41q13 0 89 -153q15 -20 29 -20q58 9 58 29q-26 82 -95 178q0 25 57 32q50 22 81 101q20 44 20 92v26q0 122 -167 273q-130 84 -216 84q-251 -20 -251 -35q-167 -71 -207 -121q-89 -98 -89 -178zM860 992h20
q107 0 170 -81q132 -106 132 -170q9 -17 9 -57v-12q0 -56 -61 -118q-5 -3 -11 -3q-15 9 -78 127q-19 28 -72 135q-48 67 -69 67h-3q-40 -13 -40 -23q173 -283 201 -323q4 0 15 -14v-9q-12 -20 -29 -23q-208 0 -208 17q-84 33 -155 87q-69 66 -69 181v3q0 154 193 210
q35 6 55 6z" />
    <glyph glyph-name="r" unicode="r" horiz-adv-x="1653" 
d="M1173 1237h38q129 0 239 -95q72 -93 72 -153q20 -98 52 -98q128 -68 138 -95q101 -128 101 -219v-43q0 -112 -164 -268l-46 -124q-42 -70 -104 -100q-228 -93 -400 -93h-21q-135 0 -285 87q-4 3 -17 3q-61 -56 -92 -78q-72 -43 -184 -43h-47q-129 0 -224 152
q-30 35 -121 35l-17 -3q-87 0 -159 95q-80 82 -80 199v14q0 153 92 231q-104 127 -104 198v41q0 145 204 276q121 49 208 49q93 0 161 -66l12 -3q123 19 123 37q65 41 139 41q177 0 270 -110q120 130 176 130q18 3 40 3zM471 908v-2q0 -120 -9 -516v-60q0 -82 26 -214
q14 -14 32 -14h8q18 0 18 17v38q0 19 -3 34q0 41 31 219q0 58 29 58q256 -232 323 -326q29 -31 57 -31h38q0 46 -124 198q-76 108 -144 170q-18 15 -58 38l-3 11q6 20 24 20q91 -20 184 -20q203 0 343 69q89 72 89 116v17q0 56 -87 101q-141 60 -417 60q-232 17 -328 17h-29
zM897 862q42 0 259 -63q58 -50 58 -69v-9q-24 -101 -75 -101q-77 -25 -127 -25h-75q-93 0 -204 2q-48 -5 -75 -5q-17 7 -17 20q5 25 5 69v3q0 78 -26 144v3q0 7 29 17q25 -3 29 -3q181 17 219 17z" />
    <glyph glyph-name="s" unicode="s" horiz-adv-x="1607" 
d="M471 1554h37q121 0 277 -75q89 -78 126 -153q19 -17 32 -17h17q16 0 72 60q53 26 185 55q13 0 28 3q145 0 222 -95q100 -97 113 -167q12 -87 34 -87l75 -63q78 -96 78 -271v-43q0 -143 -101 -282q-168 -153 -205 -153q-25 0 -46 -72q-37 -51 -132 -124q-135 -83 -239 -83
q-25 0 -147 23h-6q-20 0 -98 -55q-75 -37 -124 -37h-37q-98 0 -328 173q-30 25 -61 97l-6 3h-43q-115 9 -256 133q-63 66 -63 138v3q0 124 97 225v2q-129 104 -129 150q-3 11 -3 23v26q0 96 75 184q70 72 129 72q42 -2 47 -2q24 2 40 2q-9 35 -12 64q0 125 205 299
q63 44 147 44zM488 880q0 -147 150 -205q138 -76 181 -106q124 -106 124 -173q0 -58 -75 -121q-55 -29 -141 -29h-32l-155 20q-15 0 -15 -17v-9q0 -49 188 -49q196 0 236 46q92 55 92 127v3q0 50 -101 179q-90 81 -230 164q-110 61 -110 144q24 161 44 161q42 69 178 69
q77 0 167 -66l49 -32h3q37 76 37 81q-113 78 -265 78h-20q-227 0 -296 -211q-5 -16 -9 -54z" />
    <glyph glyph-name="t" unicode="t" horiz-adv-x="1938" 
d="M592 1556h34q109 0 231 -92q65 -76 83 -126q66 43 112 43q38 -6 49 -6t87 52q60 37 152 37q153 0 237 -155q82 34 132 34h9q169 0 299 -158q81 -119 81 -193v-37q0 -77 -138 -193q0 -6 -15 -21q69 -79 69 -123q3 -11 3 -32v-17q0 -158 -334 -288q-72 -30 -72 -58
q0 -207 -440 -300q-25 -5 -64 -5h-72q-59 0 -164 57q-7 3 -29 6q-121 -17 -167 -17q-132 0 -279 127q-70 33 -112 129q-20 69 -72 69q-75 0 -150 90q-104 180 -104 239l-3 20q0 6 9 72q0 14 -66 63q-58 72 -58 135v26q0 72 107 173l20 23q-38 47 -38 75q15 151 43 184
q103 113 225 113q89 0 176 -75h3l23 43q24 44 121 75q39 11 72 11zM586 1090q0 -21 55 -35q113 -50 236 -77l6 -12q-38 -96 -116 -409q-34 -100 -123 -325q61 -18 77 -18q25 0 61 156q99 246 138 417l37 156q7 6 12 6q85 0 227 -43h6q23 11 23 69q-109 66 -363 124
q-221 51 -239 51q-37 0 -37 -60z" />
    <glyph glyph-name="u" unicode="u" horiz-adv-x="2033" 
d="M603 1666h41q132 0 319 -110q69 -63 98 -112q13 -11 89 -23q11 -7 44 -43q3 0 8 -3q87 29 138 29q168 0 265 -159q12 -34 21 -34q92 43 152 43h20q145 0 274 -144q32 -59 32 -109q0 -53 -32 -144q0 -14 52 -49q69 -81 69 -159v-17q0 -83 -133 -228q-96 -84 -181 -95
l-3 -5v-23q0 -97 -109 -176q-102 -98 -173 -98q-48 -17 -89 -17h-26q-61 0 -202 52h-14q-99 -107 -139 -107q-26 -14 -72 -14h-20q-70 0 -187 54l-14 3q-18 0 -69 -43q-38 -17 -70 -17h-11q-134 0 -314 147q-92 72 -92 155q0 47 -32 61q-30 7 -112 51q-85 76 -107 159
q-49 126 -49 222q0 42 26 112v6q0 3 -49 37q-112 127 -112 210v26q0 105 219 234q59 23 190 43q38 120 115 196q122 89 239 89zM1260 1032q-11 -21 -20 -115q-20 -75 -87 -392q-22 -72 -83 -123q-77 -58 -156 -58q-136 0 -173 233q-8 34 -11 127q3 194 3 251q0 43 -55 43
q-2 0 -23 3q-49 0 -49 -64l-6 -66q0 -359 90 -495q80 -124 230 -124h17q68 0 205 55q104 62 158 247q13 89 20 98l15 3h3q11 -5 11 -20v-170q15 -166 29 -216q14 -49 69 -49q0 -4 29 -6q17 0 23 26q-15 657 -29 657q-14 147 -32 147q0 8 -178 8z" />
    <glyph glyph-name="v" unicode="v" horiz-adv-x="1996" 
d="M500 1487h25q110 0 311 -152q35 -44 44 -44q50 49 115 49q99 98 305 98h9q84 0 118 -95l6 -46q108 32 184 32q165 0 225 -196q0 -51 98 -63q113 -39 167 -147q43 -89 43 -159v-40q0 -54 -18 -121q-2 -4 -2 -20q0 -13 26 -115v-55q0 -80 -116 -178q-94 -54 -207 -139
q-82 -46 -164 -46h-6q-30 0 -107 12h-2q-16 0 -64 -52q-46 -45 -167 -72q-84 -20 -127 -20h-63q-125 0 -239 121q-56 45 -72 49q-7 0 -104 -44q-75 -17 -129 -17q-96 0 -245 164q-26 38 -29 38q-19 -9 -40 -9h-12q-88 0 -236 161q-75 100 -75 167v3q0 24 3 55q0 7 -52 55
q-63 83 -63 173v28q0 95 69 147q-32 77 -32 113v20q0 153 205 190q18 3 40 3q76 0 147 -38v3q96 187 231 187zM1009 341q-46 0 -98 95q-66 199 -190 475q-26 69 -49 69q-12 0 -66 -14q0 -9 92 -271q106 -234 228 -443q28 -26 60 -26q80 0 182 138q178 249 259 421
q92 173 92 193v14q-16 0 -55 11h-14q-45 0 -173 -221q-167 -287 -167 -331q-60 -110 -101 -110z" />
    <glyph glyph-name="w" unicode="w" horiz-adv-x="1466" 
d="M379 1628h54q93 0 228 -129l11 -9l49 35q43 23 84 23h20q255 0 334 -236q0 -44 20 -44q196 -32 233 -66q72 -62 72 -124q-2 -29 -2 -46q0 -8 66 -72q78 -105 78 -181v-46q0 -39 -84 -150q0 -12 -3 -12q58 -116 58 -155q0 -101 -110 -205q-72 -56 -152 -86
q-109 -40 -179 -40q-6 0 -86 -66q-155 -101 -257 -101h-17q-96 0 -201 98q-35 8 -47 8q-83 -11 -103 -11h-6q-208 0 -351 239q-22 34 -69 184q-179 118 -179 248v29q0 57 49 129v3q-46 55 -46 110v17q0 58 46 147q15 15 49 40q-84 66 -84 161q0 81 98 150q26 20 176 46
q74 87 109 87q69 25 142 25zM278 1153q-9 -57 -15 -590q0 -152 55 -222q74 -52 130 -52q88 0 187 124q37 63 37 156q7 26 26 26q15 -9 15 -21q-6 -32 -6 -46q0 -177 55 -201q41 -41 103 -41h9q178 0 213 573q9 62 9 173v38q0 37 -38 37h-31q-23 0 -23 -52q-41 -206 -55 -348
q-33 -226 -66 -268q-24 -23 -52 -23q-47 0 -72 101q-9 178 -9 196q14 213 14 420q-13 0 -28 3q-41 0 -41 -37l-37 -286q0 -112 -43 -256q-20 -107 -61 -144q-52 -37 -89 -37h-9q-124 0 -124 224q0 135 29 522v17q-10 14 -63 14h-20z" />
    <glyph glyph-name="x" unicode="x" horiz-adv-x="1693" 
d="M595 1531q96 0 201 -72q48 -53 78 -124q197 57 236 57h66q21 0 67 -31h2l47 2q97 -14 149 -46q84 -48 139 -213q15 -7 106 -29q167 -85 167 -262v-46q0 -33 -52 -106l-40 -64q35 -49 35 -92v-20q0 -116 -139 -202q-70 -37 -173 -37q-55 6 -77 6h-6v-3q0 -45 6 -127
q0 -148 -228 -201q-25 -3 -43 -3h-49q-130 0 -294 46h-8q-20 0 -93 -32q-52 -8 -167 -11q-132 0 -270 172q-35 67 -46 70q-11 5 -23 5h-44q-96 0 -146 72q-113 125 -113 271q6 43 6 72q0 9 -40 72q-9 26 -9 43v20q0 90 107 199q-38 51 -38 121q0 139 118 239q-37 60 -37 95
v3q0 93 115 138q47 15 101 15q77 0 161 -49q5 -3 14 -3q111 55 173 55h41zM407 1194q173 -367 202 -412q9 0 14 -26q-6 -10 -77 -64q-97 -100 -188 -146q-118 -76 -187 -153q71 -66 89 -66q20 0 147 92q114 74 291 216q13 6 29 6q74 -179 219 -450q37 -34 92 -34q4 0 46 3v3
q0 23 -181 388q-19 43 -61 95q-8 15 -8 29q3 18 69 49q172 118 446 349q3 8 6 8q-31 49 -58 49q-52 -8 -319 -170l-216 -144l-18 -3h-14q-9 2 -104 188q-112 216 -135 218q-63 -9 -84 -25z" />
    <glyph glyph-name="y" unicode="y" horiz-adv-x="1831" 
d="M356 1496h43q139 0 270 -72q66 -55 87 -92l20 -6h12q168 58 239 58q0 3 31 3h23q67 0 144 -47l12 -2q131 23 173 23q186 0 262 -121q44 -57 77 -162q7 -72 61 -72q181 -50 181 -161v-58q0 -113 -172 -253l-9 -11q20 -42 20 -78v-15q0 -105 -135 -167q-53 -34 -213 -98
q-23 -19 -23 -69q-33 -70 -182 -141q-98 -37 -164 -37h-63q-27 0 -190 49q-233 8 -268 28q-160 45 -234 147q-37 64 -51 67q-40 -3 -49 -3q-142 0 -280 216q-46 83 -46 173q0 19 6 69q0 18 -58 80q-20 36 -20 75v55q0 90 81 167v6q-98 82 -98 147q-3 0 -3 20v29
q0 117 89 178q43 17 72 17h15q46 0 170 -17q8 0 51 49q37 26 119 26zM338 900q0 -167 133 -271q48 -32 112 -32q91 0 164 6q30 -3 35 -6q-39 -120 -41 -409q0 -37 78 -37q23 8 23 29q0 129 32 397q0 13 112 18q147 38 187 86q90 87 130 259l9 72h-35q-23 0 -60 3
q-23 0 -75 -127q-99 -134 -182 -173q-167 -86 -351 -86h-14q-93 0 -144 124q-6 27 -6 43v6q0 12 6 138v43q0 92 -35 92q-22 6 -40 6h-9q-14 0 -29 -181z" />
    <glyph glyph-name="z" unicode="z" horiz-adv-x="1889" 
d="M540 1467h63q202 0 285 -147q28 0 41 -17h3q37 27 244 72h23q86 0 153 -84q123 41 167 41q168 0 259 -254q15 -49 15 -103v-9q0 -20 43 -20q68 -18 141 -89q72 -99 72 -167v-6q0 -92 -121 -161q-28 -12 -92 -18q8 -32 8 -63v-17q0 -113 -204 -234q-113 -43 -156 -43
q-53 3 -89 3v-14q0 -136 -132 -173q-85 -35 -147 -35q-57 0 -219 29h-6q-83 -40 -132 -40h-32q-205 0 -527 325q-45 42 -156 118q-161 150 -161 176q-26 59 -26 109v23q0 39 49 147v9q0 11 -54 104q-12 21 -12 46v14q0 90 230 265q72 40 124 40h9q38 74 124 113
q93 60 213 60zM525 1064q0 -27 -5 -75q0 -14 106 -29q328 -60 438 -60l14 3q14 -6 15 -12v-20q-10 -13 -205 -141q-208 -142 -394 -288q-15 -19 -15 -46v-9q0 -36 52 -43q102 -29 496 -46q9 -3 181 -17q29 6 29 51q0 12 -421 44q-86 14 -135 14h-3q-27 0 -63 -9
q-35 0 -52 23q126 113 242 167q104 59 340 245q31 35 31 67q-11 126 -20 161q-104 -3 -150 -3q-205 0 -481 23z" />
    <glyph glyph-name="yen" unicode="&#xa5;" horiz-adv-x="1627" 
d="M540 1289h17v-3l-14 -23v-3q116 -127 126 -127h9q130 101 274 121q84 0 135 -92l17 -55q17 1 133 118q47 49 57 49h15q32 -29 152 -55q6 0 6 -5v-3q0 -17 -57 -52h-3v3q0 8 14 34q-17 15 -112 47q-27 0 -124 -90q-214 -178 -259 -227l-49 -67q-22 19 -185 211
q-106 106 -187 193l-20 3q-207 -17 -207 -32v-3q0 -26 270 -363q85 -96 144 -178q9 0 15 -12q-10 -17 -26 -17q-45 23 -222 43q-53 6 -103 6h-67q-21 0 -63 -6q4 -118 26 -118q226 -9 377 -38q50 -8 78 -8h29q5 -1 5 -6q-51 -78 -51 -112v-20q-2 -6 -15 -12q-56 0 -308 52
q-62 9 -107 9q-43 0 -43 -55q-3 -18 -3 -43q0 -32 254 -49q81 -18 152 -23q11 2 26 2h3q16 0 20 -11v-9q-37 -119 -74 -282q0 -18 112 -29q0 -5 34 -5q38 0 49 158q18 24 26 138l12 12q172 -20 268 -20q52 0 77 135h-2q-51 11 -234 29q-13 5 -17 23q3 51 3 83q-3 36 -3 38
q12 8 35 8l184 -8q51 0 60 26q22 32 26 69q-218 23 -224 26l-3 5q0 26 66 93q152 178 233 259v-3q0 -5 -5 -17q59 -22 77 -32q0 -3 3 -3h23q119 0 161 -95q3 -11 3 -23l-3 -12q137 -32 191 -106q40 -67 40 -104v-8q0 -57 -63 -127v-6q48 -65 48 -124q0 -84 -129 -175
q-43 -18 -95 -29q-18 -107 -32 -107q-95 -78 -196 -78h-28q-51 0 -144 35q-6 0 -61 -52q-49 -23 -92 -23q-71 0 -182 107h-8q-22 -121 -38 -121q-107 29 -198 29q0 2 -3 2q26 112 26 121h-20q-13 0 -24 -5q-14 5 -20 5q-19 0 -92 -60q-44 -20 -83 -20q-31 0 -107 26h-11
q-4 0 -32 -6h-6q-89 0 -204 150q-21 35 -21 72q0 18 21 86q0 10 -87 104q-60 88 -60 147v20q0 41 37 121v11q0 8 -29 52q-14 29 -14 55v17q0 102 144 147q95 6 95 37q25 44 121 72q21 9 58 9l80 -9v3q-101 134 -101 144q0 23 133 23q141 18 170 18zM1340 1073v-3
q-35 -43 -40 -43v5q0 16 40 41z" />
    <glyph glyph-name="Euro" unicode="&#x20ac;" horiz-adv-x="1944" 
d="M911 1499h15q75 0 175 -150q120 29 205 29h11q40 0 87 -9q39 0 109 43q36 18 69 18h12q48 0 135 -49h58q116 0 181 -185q63 -39 98 -74q29 -44 29 -87v-6q0 -72 -101 -158q20 -37 26 -84q0 -75 -92 -144q130 -101 150 -158q22 -38 26 -69v-46q0 -60 -81 -130
q-48 -27 -58 -37q15 -65 15 -89q0 -138 -202 -176q-9 0 -14 -3q-55 0 -173 72h-14q-7 0 -81 -43q-54 -29 -230 -43q-28 -3 -55 -3h-32q-98 0 -262 95l-49 37q-50 -46 -80 -46q-3 0 -18 -3q-38 6 -54 6q-67 -23 -87 -23h-3q-69 0 -190 81h-6q-63 -15 -92 -15q-121 0 -236 164
q-20 38 -20 87v8q-88 25 -141 90q-101 104 -101 190v29q0 43 37 146v12q-34 75 -34 135q0 149 118 225l109 86q87 173 228 173q60 -6 83 -6q87 58 159 58q58 0 158 -55h3q75 95 141 95q45 12 69 12zM770 891q-16 3 -150 9q-76 0 -262 -6q-24 0 -28 -86q2 -26 8 -26l369 -20
q101 -10 101 -23q-9 -77 -9 -98q0 -14 6 -90q-6 -23 -35 -23q-78 0 -463 38q-41 0 -41 -58q0 -63 41 -63q383 -49 420 -49q36 3 37 3q24 0 24 -44v-34q0 -129 100 -245q154 -135 332 -135q225 16 264 46q190 96 219 190v6q0 18 -34 40h-3q-10 0 -282 -150q-113 -23 -159 -23
q-107 28 -207 144q-38 48 -75 136v2q12 18 26 18q51 -6 63 -6q172 6 285 6q35 0 35 83q-100 23 -406 52q-12 9 -12 17q15 46 15 124q0 11 -3 26q6 26 29 26q0 -5 345 -17q18 0 23 26q0 126 -23 126q-69 36 -328 55q-43 0 -43 12q11 132 37 184q98 141 259 141q152 0 309 -83
q11 -3 20 -3q64 24 103 89q-10 23 -138 83q-28 22 -129 41q0 3 -18 8q-83 3 -106 3q-273 0 -424 -187q-52 -81 -63 -173q-8 -10 -14 -86q-15 -3 -15 -6z" />
    <glyph glyph-name="at" unicode="@" horiz-adv-x="2284" 
d="M422 1433h34q67 0 162 -67q18 -5 26 -5q13 0 138 40q83 20 170 20q243 0 512 -109h6q39 28 58 28q88 6 95 6h11q113 -23 141 -63q0 -8 110 -12q118 -43 118 -129q0 -15 78 -29q193 -98 193 -205v-20q0 -35 -23 -83q193 -67 193 -179v-20q0 -78 -133 -150q-60 -12 -72 -20
q14 -57 14 -86v-35q0 -82 -118 -167q-21 -11 -66 -17l-40 6q-5 -3 -12 -3q3 -53 3 -67q0 -43 -98 -106q-46 -14 -78 -14q-107 0 -164 69h-14q-154 -52 -256 -75q-75 0 -277 -18h-32q-155 0 -385 70q-36 -75 -139 -75h-17q-53 0 -118 52q-158 50 -193 121q-11 60 -14 60
q-153 48 -208 150q-40 82 -40 118q9 56 9 66v3q-1 3 -84 60q-72 72 -72 139v31q0 76 86 144q-49 89 -49 162q0 119 119 187q70 29 109 29h9q10 0 26 -3q14 1 60 72q109 124 222 124zM252 692v-46q0 -160 83 -296q38 -66 213 -234q65 -63 283 -138q217 -37 291 -37
q40 0 227 20q107 0 268 60q117 28 222 139q-34 26 -46 26h-12q-7 0 -101 -38q-190 -42 -521 -83q-236 0 -297 31q-223 70 -325 234q-95 146 -112 337v11q0 148 135 374q90 104 153 130q135 75 285 75q30 9 101 9q191 0 423 -150q158 -148 158 -331v-3q0 -115 -106 -182
q-20 -14 -90 -23q-63 0 -97 78q-31 26 -72 26q-25 0 -84 -78q-123 -92 -173 -92h-106q-132 0 -190 158v9q0 129 170 228q33 11 57 11h12q88 0 190 -89q15 -9 26 -9q86 10 86 38v11q0 31 -58 63q-97 93 -247 93q-146 0 -242 -75q-104 -119 -104 -254q0 -141 98 -233
q42 -38 184 -58q44 -5 87 -8q170 0 291 150q4 0 11 5h9q8 0 23 -49q60 -57 158 -57q123 0 222 83q45 80 75 190q9 49 11 90q0 167 -175 360q-123 102 -182 115q-273 115 -481 115q-444 0 -662 -386q-69 -166 -69 -320z" />
    <glyph glyph-name="sterling" unicode="&#xa3;" horiz-adv-x="1840" 
d="M1315 1640h28q45 0 113 -69h3q53 20 97 20h32q75 0 141 -66q9 -24 18 -84q36 0 109 -31q95 -58 95 -139v-11q0 -77 -58 -150l-2 -6q28 -52 28 -77q0 -59 -98 -127q-48 -32 -132 -32h-61v-26q0 -46 -8 -92q92 -42 176 -127q20 -36 20 -72q0 -20 -15 -95q29 -19 81 -31
q118 -89 118 -165v-31q0 -34 -43 -98q-45 -48 -81 -58q-45 -39 -89 -72q-59 -31 -118 -31q-108 0 -193 86q-15 11 -32 11q-144 -5 -176 -5h-11q-61 0 -377 34q-12 0 -107 -115q-39 -32 -78 -32h-8l-64 12q-13 0 -86 -35q-22 -5 -40 -5h-3q-43 0 -118 37h-9q-21 -6 -60 -32
q-14 -8 -38 -8h-3q-86 0 -196 124q-51 62 -51 158q-10 13 -81 69q-84 98 -84 193q14 129 46 144q0 3 32 32v3q-92 101 -92 172v23q0 103 115 165q63 41 66 49q-103 105 -103 210v6q0 90 138 141q5 0 35 3l51 -9q127 78 239 78q89 0 176 -61q193 173 334 173h29q37 0 213 -32
h15q29 0 89 58q44 23 78 23zM540 1245q0 -135 83 -293q23 -54 23 -67q0 -15 -28 -17h-23q-86 0 -314 -46q-6 -7 -6 -11q2 -124 9 -124q304 0 420 8q17 0 29 -60q31 -57 31 -130q0 -97 -83 -155q-142 -128 -230 -139q-23 -2 -23 -20q0 -32 152 -40l236 -23q37 6 49 6
q0 -22 153 -26q192 -26 227 -26h21q102 0 210 20q18 -6 20 -6q104 18 104 46v3q0 58 -26 58h-3l-631 17h-11q-31 0 -136 12q-15 -3 -34 -3q-15 2 -15 8q0 26 104 93q144 93 144 152q3 0 3 17q0 60 -81 168q-23 34 -23 46q10 20 23 20q48 -6 297 -20q57 0 57 20q3 20 3 34
q0 98 -20 98q-146 18 -247 18q-28 0 -116 -6q-17 0 -86 86q-69 78 -69 179v26q0 112 161 230q120 72 199 72h20q96 0 225 -69q36 -22 115 -121q42 19 60 55q9 14 9 20q-94 80 -173 101q-128 60 -184 60h-12q-16 26 -72 26q-74 17 -164 26q-117 0 -271 -104q-82 -62 -98 -141
q-8 -56 -8 -78z" />
    </font>
</defs>
</svg>
