<?xml version="1.0" standalone="no"?>
<!DOCTYPE svg PUBLIC "-//W3C//DTD SVG 20010904//EN"
 "http://www.w3.org/TR/2001/REC-SVG-20010904/DTD/svg10.dtd">
<svg version="1.0" xmlns="http://www.w3.org/2000/svg"
 width="445.000000pt" height="445.000000pt" viewBox="0 0 445.000000 445.000000"
 preserveAspectRatio="xMidYMid meet">
<metadata>
Created by potrace 1.11, written by Peter Selinger 2001-2013
</metadata>
<g transform="translate(0.000000,445.000000) scale(0.100000,-0.100000)"
fill="#000000" stroke="none">
<path d="M2320 3756 c-126 -29 -260 -106 -348 -199 -26 -27 -55 -59 -66 -69
-21 -24 -113 -172 -121 -198 -9 -30 -30 -30 -66 -1 -119 96 -300 143 -534 140
-60 -1 -139 -7 -175 -15 -36 -7 -76 -15 -90 -18 -14 -3 -61 -16 -104 -30 -44
-14 -84 -22 -90 -19 -6 3 -8 3 -4 -1 4 -5 -35 -29 -85 -54 -51 -26 -94 -49
-97 -52 -3 -3 -39 -31 -81 -63 -112 -84 -258 -262 -275 -334 -4 -16 -10 -32
-14 -38 -3 -5 -15 -39 -24 -75 -10 -36 -25 -85 -33 -110 -20 -65 -28 -272 -14
-367 18 -114 37 -177 89 -281 55 -112 77 -144 163 -232 169 -173 423 -270 710
-270 76 0 80 -1 89 -26 6 -14 10 -38 10 -53 0 -27 41 -143 59 -165 5 -6 11
-20 13 -31 1 -11 5 -22 8 -25 3 -3 23 -27 45 -55 72 -92 156 -165 242 -212 38
-20 70 -41 71 -45 2 -4 14 -8 26 -8 12 0 32 -7 44 -16 12 -8 22 -12 22 -8 0 3
6 2 13 -4 6 -5 41 -13 76 -17 35 -4 76 -11 90 -15 41 -11 270 8 341 29 90 27
139 46 152 59 7 7 16 12 22 12 28 0 166 106 229 177 25 28 94 129 100 146 3 9
13 8 41 -6 108 -51 157 -61 296 -61 101 0 146 4 178 17 23 9 42 14 42 12 0 -8
114 57 154 88 117 92 174 185 203 328 15 72 15 88 1 162 -9 45 -18 89 -22 98
-6 14 5 17 86 22 110 6 231 41 302 88 128 85 247 240 298 389 21 58 23 84 22
235 0 161 -1 174 -27 238 -43 108 -130 228 -221 307 -46 39 -157 109 -193 121
-18 6 -33 15 -33 19 0 5 -7 6 -17 3 -12 -5 -14 -3 -8 7 6 10 4 12 -7 8 -8 -4
-46 2 -84 13 -92 26 -236 26 -329 0 -38 -11 -74 -17 -79 -14 -5 3 -6 1 -2 -5
4 -7 3 -12 -3 -12 -5 0 -16 11 -23 24 -80 149 -193 271 -323 351 -44 27 -81
52 -83 56 -2 5 -10 5 -19 2 -12 -5 -14 -3 -8 7 5 8 4 11 -2 7 -11 -7 -147 36
-139 44 12 11 -342 7 -394 -5z"/>
</g>
</svg>
